<svg width="500" height="500" viewBox="0 0 500 500" fill="none" xmlns="http://www.w3.org/2000/svg">
<circle cx="250" cy="250" r="250" fill="#E65C00"/>
<g clip-path="url(#clip0_1104_2696)">
<path d="M120.004 140H160.004L186.804 273.9C187.718 278.504 190.223 282.639 193.879 285.583C197.536 288.526 202.111 290.09 206.804 290H304.004C308.697 290.09 313.272 288.526 316.928 285.583C320.585 282.639 323.089 278.504 324.004 273.9L340.004 190H170.004M210.004 340C210.004 345.523 205.527 350 200.004 350C194.481 350 190.004 345.523 190.004 340C190.004 334.477 194.481 330 200.004 330C205.527 330 210.004 334.477 210.004 340ZM320.004 340C320.004 345.523 315.527 350 310.004 350C304.481 350 300.004 345.523 300.004 340C300.004 334.477 304.481 330 310.004 330C315.527 330 320.004 334.477 320.004 340Z" stroke="white" stroke-width="20" stroke-linecap="round" stroke-linejoin="round"/>
</g>
<defs>
<clipPath id="clip0_1104_2696">
<rect width="240" height="240" fill="white" transform="translate(110.002 130)"/>
</clipPath>
</defs>
</svg>
