<svg width="1000" height="1001" viewBox="0 0 1000 1001" fill="none" xmlns="http://www.w3.org/2000/svg">
<path d="M499.933 578.39C356.618 578.39 240.028 461.797 240.028 318.477C240.028 175.17 356.618 58.5693 499.933 58.5693C643.246 58.5693 759.841 175.17 759.841 318.477C759.841 461.797 643.243 578.39 499.933 578.39Z" fill="#F4773A"/>
<path d="M499.933 54.5488C354.405 54.5488 236.008 172.946 236.008 318.479C236.008 463.998 354.405 582.4 499.933 582.4C645.469 582.4 763.865 464.001 763.865 318.476C763.865 172.946 645.469 54.5488 499.933 54.5488ZM499.933 62.5878C641.25 62.5878 755.818 177.161 755.818 318.479C755.818 459.799 641.25 574.37 499.933 574.37C358.61 574.37 244.047 459.799 244.047 318.479C244.047 177.161 358.61 62.5878 499.933 62.5878Z" fill="black"/>
<path d="M499.93 0C324.32 0 181.449 142.871 181.449 318.472C181.449 494.082 324.32 636.959 499.93 636.959C675.542 636.959 818.41 494.082 818.41 318.472C818.41 142.871 675.542 0 499.93 0ZM499.93 8.03901C671.381 8.03901 810.371 147.024 810.371 318.472C810.371 489.932 671.378 628.914 499.93 628.914C328.481 628.914 189.488 489.932 189.488 318.472C189.488 147.024 328.481 8.03901 499.93 8.03901Z" fill="black"/>
<path d="M511.296 496.068C464.476 496.068 416.37 495.694 416.37 495.694C415.934 495.683 379.246 494.299 377.437 453.565C375.625 412.833 409.808 408.647 410.149 408.612L533.464 408.622C540.729 408.622 564.476 406.797 565.102 383.375C565.25 377.641 563.593 373.093 560.031 369.414C551.338 360.492 533.881 359.522 526.782 359.522C524.613 359.522 523.283 359.617 523.207 359.625L459.263 359.634C458.489 359.579 420.182 355.421 421.534 312.201C422.88 269.264 466.512 268.774 468.373 268.774L545.446 269.191C549.226 269.191 566.097 267.82 566.767 241.896C566.68 239.981 565.157 220.979 539.98 220.979C539.108 220.979 538.217 221.006 537.288 221.06C537.288 221.06 536.312 221.115 534.628 221.115C510.336 221.115 484.279 211.092 483.949 182.964C483.77 166.343 487.887 153.658 496.204 145.254C505.562 135.779 517.855 134.367 524.343 134.367H578.818C584.066 134.367 625.253 135.577 626.501 175.369C627.684 213.264 628.286 287.811 628.297 288.569C628.363 288.689 629.303 295.349 625.202 300.167C623.479 302.189 620.22 304.598 614.41 304.598L613.364 304.579C610.729 304.579 608.81 305.047 607.987 305.892C607.11 306.783 607.14 308.582 607.164 310.171V311.541C607.063 314.424 606.941 317.85 607.698 318.629C607.905 318.855 608.633 319.114 610.004 319.114H615.315C615.735 319.033 616.323 318.956 617.032 318.956C619.604 318.956 621.97 319.937 623.681 321.687C625.91 323.984 626.986 327.483 626.867 332.069C626.575 342.771 625.169 447.398 625.155 448.45C625.202 448.867 626.311 466.893 613.669 480.701C604.818 490.364 591.612 495.416 574.436 495.694C557.827 495.972 534.704 496.068 511.296 496.068Z" fill="black"/>
<path d="M579.217 130.339H579.108L578.569 130.35L524.345 130.342C512.047 130.342 501.04 134.628 493.339 142.425C484.251 151.605 479.733 165.266 479.934 182.996C480.289 214.062 508.422 225.126 534.627 225.126C536.485 225.126 537.556 225.06 537.556 225.06C538.349 225.019 539.175 225.006 539.973 225.006C561.583 225.006 562.695 240.49 562.741 242.247C562.188 263.492 549.609 265.165 545.764 265.165L468.462 264.748C451.294 264.748 418.688 274.648 417.516 312.067C416.347 349.646 443.819 362.208 458.504 363.603L458.886 363.642H523.217L523.498 363.622C523.612 363.614 524.836 363.549 526.781 363.549C531.915 363.549 549.31 364.162 557.155 372.212C559.954 375.106 561.202 378.616 561.079 383.268C560.567 402.515 541.603 404.594 533.469 404.594C532.94 404.594 532.605 404.581 532.52 404.581L410.584 404.57H410.142L409.714 404.616C396.47 406.058 371.836 418.154 373.416 453.741C374.989 489.298 402.09 499.367 416.206 499.721C416.824 499.721 464.993 500.095 511.295 500.095C538.505 500.095 559.779 499.953 574.5 499.721C592.826 499.405 607.01 493.914 616.633 483.417C629.506 469.353 629.307 451.294 629.185 448.236C629.258 442.405 630.612 342.59 630.882 332.186C631.019 326.458 629.577 321.978 626.555 318.871C624.083 316.337 620.69 314.936 617.031 314.936C616.254 314.936 615.567 315.002 615 315.083H611.104C611.095 314.102 611.139 312.963 611.166 312.058C611.194 311.222 611.194 310.701 611.169 310.113V308.783C611.632 308.69 612.319 308.606 613.349 308.606H613.444L614.409 308.614C621.759 308.614 625.991 305.442 628.253 302.782C632.858 297.376 632.594 290.544 632.313 288.023C632.253 281.442 631.648 211.557 630.517 175.232C629.408 139.792 597.745 130.339 579.217 130.339ZM579.217 138.381C583.646 138.381 621.355 139.435 622.484 175.488C623.672 213.781 624.282 288.585 624.282 288.585C624.282 288.585 626.22 300.575 614.409 300.575C614.273 300.575 614.137 300.575 614 300.567H613.349C601.773 300.567 603.255 308.123 603.144 311.399C602.92 317.757 602.574 323.122 610.003 323.122H615.889H615.709C615.709 323.122 616.249 322.975 617.031 322.975C619.156 322.975 623.059 324.049 622.843 331.965C622.554 342.811 621.132 448.392 621.132 448.392C621.132 448.392 624.132 490.843 574.375 491.666C557.779 491.949 534.692 492.045 511.295 492.045C464.489 492.045 416.407 491.669 416.407 491.669C416.407 491.669 383.107 490.843 381.452 453.387C379.779 415.95 410.584 412.609 410.584 412.609H532.082C532.082 412.609 532.586 412.636 533.471 412.636C540.104 412.636 568.388 411.017 569.124 383.477C569.81 357.761 537.987 355.499 526.781 355.499C524.391 355.499 522.928 355.608 522.928 355.608H459.265C459.265 355.608 424.313 352.27 425.561 312.328C426.782 273.191 466.737 272.787 468.366 272.787H468.424L545.402 273.207H545.762C548.789 273.207 570.015 272.139 570.789 242.005C570.789 242.005 569.998 216.953 539.984 216.953C539.044 216.953 538.079 216.991 537.079 217.035C537.079 217.035 536.18 217.095 534.627 217.095C524.735 217.095 488.336 214.906 487.976 182.914C487.554 145.866 509.518 138.394 524.345 138.394H578.792C578.792 138.394 578.939 138.381 579.217 138.381Z" fill="#F9FAF9"/>
<path d="M420.779 221.153C399.592 221.153 382.358 201.685 382.358 177.759C382.358 153.835 399.592 134.367 420.777 134.367C441.959 134.367 459.2 153.835 459.2 177.759C459.2 201.685 441.959 221.153 420.777 221.153" fill="black"/>
<path d="M420.781 130.339C397.375 130.339 378.335 151.605 378.335 177.766C378.335 203.919 397.375 225.18 420.778 225.18C444.181 225.18 463.221 203.919 463.221 177.764C463.221 151.603 444.181 130.342 420.778 130.342M420.778 138.381C439.78 138.381 455.177 156.012 455.177 177.766C455.177 199.504 439.78 217.133 420.778 217.133C401.776 217.133 386.379 199.502 386.379 177.766C386.379 156.012 401.776 138.381 420.778 138.381Z" fill="#F9FAF9"/>
<path d="M1000 742.504H700.733V798.79H664.009V828.951H701.035V885.663H999.915V842.772H939.474V855.667H762.205V828.521H861.405V798.486H762.37V772.61H939.199L939.897 786.532H1000V742.504ZM421.786 798.625H416.54C414.64 798.625 412.736 798.451 410.332 798.335V772.557C412.446 772.397 414.311 772.127 416.173 772.127C440.205 772.113 464.233 771.974 488.265 771.974C506.502 771.974 524.744 772.054 542.977 772.329C557.855 772.551 573.033 774.012 586.111 782.831C588.174 788.982 583.447 791.467 579.683 792.767C570.198 796.044 560.635 798.803 550.238 798.803C550.073 798.803 549.906 798.803 549.741 798.799C528.746 798.621 507.751 798.577 486.752 798.577C465.096 798.577 443.442 798.625 421.786 798.625ZM461.08 742C425.763 742 390.438 742.124 355.12 742.131C353.043 742.131 350.968 742.346 348.073 742.504V798.776H311.262V828.874H348.285V885.657H410.245V828.665H417.883C427.283 828.665 436.685 828.709 446.086 828.709C453.795 828.709 461.504 828.679 469.208 828.571C469.492 828.567 469.776 828.564 470.053 828.564C475.222 828.564 479.73 829.313 483.649 833.313C486.452 836.177 489.986 838.344 493.279 840.702C502.417 847.241 511.673 853.61 520.74 860.241C531.066 867.794 541.103 875.75 551.571 883.096C554.242 884.97 558.05 885.997 561.361 886.055C569.523 886.201 577.685 886.24 585.849 886.24C594.375 886.24 602.902 886.196 611.427 886.181C613.51 886.176 615.594 885.911 618.119 885.737L621.477 876.771C600.872 861.113 580.545 845.669 560.02 830.07C572.513 827.695 584.072 825.382 595.678 823.317C611.604 820.482 626.462 814.876 638.834 804.426C651.635 793.614 651.907 778.362 638.621 767.349C628.123 758.645 615.94 753.725 602.931 749.906C584.728 744.565 566.027 742.57 547.398 742.377C518.625 742.082 489.855 742 461.08 742ZM312.57 742.508H0V786.475H61.0567L61.8382 772.516H125.43V885.613H187.499V772.543H250.703C250.987 777.459 251.243 781.953 251.499 786.419H312.57V742.508Z" fill="#F4773A"/>
<path d="M74.0897 968.231C78.7346 964.938 81.0597 960.013 81.0597 953.456C81.0597 949.46 80.0313 946.025 77.9708 943.152C74.0755 937.627 66.951 934.863 56.599 934.863C46.192 934.863 39.0675 937.781 35.2272 943.62C33.1668 946.742 32.1384 950.707 32.1384 955.517C32.1384 959.387 33.1686 962.682 35.229 965.398C39.1226 970.581 46.2453 973.173 56.599 973.173C63.6117 973.173 69.4413 971.526 74.0897 968.231ZM17.7437 928.914H32.387V935.564C35.3708 933.295 38.6927 931.509 42.231 930.271C47.2933 928.399 53.2437 927.463 60.0823 927.463C70.2033 927.463 78.795 929.639 85.8574 933.998C92.9215 938.35 96.4527 944.574 96.4527 952.659C96.4527 963.588 91.3549 971.393 81.1663 976.077C74.7079 979.043 67.189 980.527 58.6151 980.527C51.876 980.527 46.224 979.699 41.659 978.043C38.984 977.107 36.0052 975.5 32.721 973.221V998.838H17.7437V928.914ZM118.451 928.914H133.013V978.839H118.451V928.914ZM118.451 910.04H133.013V919.594H118.451V910.04ZM155.394 972.189L207.486 936.22H159.243V928.68H227.309V935.564L175.552 971.299H228.865V978.839H155.394V972.189ZM242.204 972.189L294.898 936.22H246.098V928.68H314.95V935.564L262.596 971.299H316.526V978.839H242.204V972.189ZM402.386 947.979C401.772 944.325 400.345 941.406 398.111 939.222C393.974 935.161 387.071 933.133 377.405 933.133C370.478 933.133 364.662 934.531 359.969 937.325C355.275 940.119 352.786 943.669 352.509 947.979H402.386ZM396.937 928.285C402.93 929.957 407.495 932.117 410.632 934.77C413.656 937.3 415.671 940.25 416.681 943.623C417.577 945.934 418.026 949.618 418.026 954.677H352.17C352.451 959.78 354.603 963.874 358.63 966.958C362.657 970.041 368.89 971.583 377.334 971.583C385.221 971.583 391.51 970.127 396.207 967.208C398.835 965.514 400.701 963.554 401.795 961.329H416.758C416.363 963.169 415.053 965.222 412.827 967.484C410.649 969.713 408.135 971.586 405.376 973.034C400.789 975.533 395.111 977.219 388.345 978.093C384.709 978.592 380.597 978.843 376.012 978.843C364.81 978.843 355.319 976.571 347.532 972.029C339.747 967.484 335.853 961.123 335.853 952.943C335.853 944.888 339.774 938.346 347.617 933.319C355.458 928.292 365.708 925.779 378.368 925.779C384.753 925.779 390.944 926.616 396.937 928.285ZM438.842 928.68H452.448V937.344C453.562 935.659 456.293 933.605 460.643 931.186C464.992 928.767 470.006 927.555 475.683 927.555C475.949 927.555 476.399 927.573 477.036 927.603C477.672 927.633 478.759 927.696 480.298 927.79V936.689C479.518 936.6 478.736 936.538 477.953 936.5C477.17 936.469 476.387 936.453 475.603 936.454C468.391 936.454 462.844 937.822 458.974 940.554C455.102 943.286 453.166 946.43 453.166 949.989V978.839H438.842V928.68ZM499.817 928.914H514.378V978.839H499.817V928.914ZM499.817 910.04H514.378V919.594H499.817V910.04ZM558.968 971.258C562.151 972.659 565.922 973.361 570.277 973.361C575.583 973.361 580.72 972.676 585.691 971.301C594.07 969.027 598.258 965.302 598.258 960.126V953.348C596.418 954.005 594.048 954.554 591.151 954.993C588.323 955.424 585.478 955.737 582.624 955.929L573.51 956.584C568.048 956.991 563.939 957.629 561.188 958.501C556.523 959.966 554.193 962.302 554.193 965.512C554.193 967.94 555.785 969.857 558.968 971.258ZM590.72 948.485C594.182 948.234 596.5 947.424 597.672 946.051C598.342 945.302 598.676 944.22 598.676 942.808C598.676 939.925 596.851 937.834 593.199 936.532C589.549 935.232 584.323 934.582 577.526 934.582C569.666 934.582 564.09 935.772 560.802 938.158C558.962 939.476 557.765 941.438 557.209 944.042H543.134C543.413 937.843 546.997 933.527 553.888 931.102C560.774 928.674 568.765 927.461 577.858 927.461C588.402 927.461 596.963 928.587 603.548 930.834C610.074 933.083 613.337 936.58 613.337 941.325V970.224C613.337 971.098 613.658 971.802 614.299 972.331C614.941 972.86 616.298 973.127 618.363 973.127C619.033 973.127 619.788 973.102 620.625 973.056C621.463 973.008 622.355 972.938 623.307 972.846V979.074C620.96 979.447 619.172 979.683 617.944 979.777C616.715 979.871 615.04 979.917 612.918 979.917C607.724 979.917 603.955 978.887 601.608 976.827C600.379 975.734 599.514 974.189 599.011 972.191C595.94 974.439 591.526 976.391 585.775 978.043C580.023 979.699 573.682 980.527 566.758 980.527C558.437 980.527 551.637 979.114 546.36 976.292C541.083 973.471 538.443 969.94 538.443 965.698C538.443 961.052 541.04 957.451 546.234 954.894C551.427 952.336 558.241 950.76 566.675 950.169L590.72 948.485ZM634.408 958.327V950.458H672.402V929.898H687.303V950.458H725.297V958.327H687.303V978.841H672.4V958.325L634.408 958.327ZM799.695 939.733C795.057 936.737 789.144 935.238 781.961 935.238C771.213 935.238 763.861 938.016 759.9 943.573C757.808 946.54 756.761 950.426 756.761 955.235C756.761 960.887 758.84 965.189 762.996 968.137C767.152 971.089 772.741 972.564 779.757 972.564C790.729 972.564 798.45 969.832 802.919 964.368C805.406 961.277 806.653 957.672 806.653 953.549C806.653 947.336 804.333 942.73 799.695 939.733ZM797.818 930.692C800.704 931.786 803.649 933.38 806.653 935.47V929.147H820.809V974.766C820.809 981.136 819.108 986.163 815.71 989.846C809.361 996.653 797.379 1000.06 779.757 1000.06C769.952 1000.06 761.708 998.845 755.021 996.426C748.335 994.006 744.594 990.221 743.798 985.068H759.404C760.14 987.317 761.611 989.051 763.817 990.267C767.263 992.141 772.694 993.077 780.101 993.077C791.807 993.077 799.466 990.799 803.086 986.239C805.235 983.555 806.226 978.761 806.056 971.862C802.997 974.42 799.317 976.327 795.013 977.576C790.709 978.825 785.016 979.448 777.936 979.448C768.081 979.448 759.461 977.521 752.069 973.663C744.679 969.809 740.985 963.432 740.985 954.533C740.985 946.135 744.706 939.577 752.154 934.863C759.603 930.149 768.593 927.79 779.128 927.79C786.263 927.79 792.492 928.756 797.818 930.692ZM844.787 926.903H858.393V935.568C859.508 933.882 862.24 931.829 866.59 929.41C870.939 926.99 875.951 925.779 881.628 925.779C881.894 925.779 882.344 925.797 882.981 925.827C883.617 925.857 884.704 925.919 886.243 926.014V934.912C885.463 934.824 884.681 934.761 883.898 934.724C883.115 934.692 882.332 934.677 881.548 934.678C874.335 934.678 868.791 936.046 864.919 938.778C861.047 941.509 859.11 944.653 859.11 948.213V977.063H844.787V926.903ZM905.762 928.914H920.323V978.839H905.762V928.914ZM905.762 910.04H920.323V919.594H905.762V910.04ZM947.692 910.04H962.014V978.839H947.692V910.04ZM983.897 910.04H998.221V978.839H983.897V910.04ZM705.471 881.22V824.505H668.446V803.229H705.17V746.939H995.556V782.088H944.12L943.42 768.167H757.925V802.925H856.961V824.078H757.763V860.106H943.91V847.21H995.471V881.22H705.471Z" fill="black"/>
<path d="M1000 742.505H700.733V798.791H664.009V828.951H701.035V885.663H999.915V842.772H939.474V855.668H762.205V828.521H861.405V798.487H762.37V772.61H939.199L939.897 786.533H1000V742.505ZM991.119 751.386V777.651H948.345L948.07 772.165L947.647 763.729H753.489V807.368H852.524V819.642H753.326V864.549H948.356V851.653H991.033V876.782H709.916V820.072H672.89V807.674H709.614V751.388L991.119 751.386Z" fill="#F4773A"/>
<path d="M486.915 803.016C512.184 803.016 531.548 803.082 549.705 803.236L550.241 803.238C561.428 803.238 571.7 800.222 581.134 796.961C592.781 792.936 591.44 784.749 590.322 781.419L589.845 779.987L588.596 779.145C574.498 769.642 558.371 768.116 543.046 767.885C526.955 767.644 509.528 767.53 488.208 767.53C475.566 767.53 462.925 767.569 450.285 767.607C438.912 767.642 427.542 767.678 416.17 767.681C414.701 767.683 413.277 767.823 411.902 767.955C411.286 768.015 410.652 768.076 409.993 768.127L405.893 768.443V802.565L410.12 802.767C410.902 802.806 411.627 802.849 412.316 802.892C413.767 802.981 415.137 803.059 416.536 803.06L421.805 803.062C432.659 803.062 443.512 803.052 454.365 803.039C465.214 803.027 476.065 803.014 486.913 803.014M585.869 881.798C576.31 881.798 568.547 881.738 561.441 881.611C558.794 881.565 555.92 880.72 554.123 879.459C547.9 875.091 541.696 870.403 535.698 865.874C531.61 862.768 527.498 859.695 523.361 856.655C517.807 852.589 512.102 848.568 506.585 844.683C503.006 842.157 499.427 839.635 495.867 837.088C495.091 836.536 494.31 835.99 493.524 835.45C491.037 833.731 488.689 832.111 486.822 830.203C481.572 824.843 475.401 824.12 470.058 824.12L469.147 824.127C462.458 824.219 455.122 824.264 446.057 824.264C441.359 824.264 436.661 824.253 431.961 824.242C427.254 824.23 422.549 824.219 417.844 824.219H405.806V881.214H352.726V824.432H315.704V803.213H352.515V746.666C353.384 746.607 354.255 746.574 355.126 746.569C372.208 746.565 389.298 746.533 406.385 746.503C424.593 746.469 442.802 746.436 461.008 746.436C494.801 746.436 522.239 746.556 547.355 746.814C567.769 747.024 585.541 749.427 601.682 754.162C611.829 757.141 624.874 761.718 635.787 770.765C641.182 775.234 644.047 780.458 644.07 785.866C644.097 791.288 641.295 796.533 635.97 801.03C625.268 810.071 611.836 815.928 594.9 818.942C586.889 820.368 578.995 821.892 570.642 823.507C566.896 824.228 563.089 824.963 559.192 825.704L549.392 827.569L616.161 878.306L614.954 881.535C613.657 881.645 612.513 881.734 611.421 881.736L601.467 881.764C596.268 881.782 591.068 881.8 585.871 881.8" fill="black"/>
<path d="M421.787 798.625H416.542C414.641 798.625 412.737 798.451 410.334 798.335V772.557C412.448 772.397 414.313 772.127 416.174 772.127C440.207 772.113 464.234 771.974 488.267 771.974C506.503 771.974 524.745 772.054 542.979 772.329C557.856 772.551 573.034 774.012 586.113 782.831C588.175 788.982 583.449 791.467 579.685 792.767C570.2 796.044 560.636 798.803 550.24 798.803C550.075 798.803 549.908 798.803 549.743 798.799C528.747 798.621 507.752 798.577 486.753 798.577C465.097 798.577 443.443 798.625 421.787 798.625ZM461.081 742C425.764 742 390.44 742.124 355.121 742.131C353.045 742.131 350.97 742.346 348.075 742.504V798.776H311.264V828.874H348.286V885.657H410.247V828.665H417.885C427.285 828.665 436.686 828.709 446.088 828.709C453.797 828.709 461.506 828.679 469.209 828.571C469.493 828.567 469.778 828.564 470.055 828.564C475.224 828.564 479.732 829.313 483.65 833.313C486.453 836.177 489.988 838.344 493.281 840.702C502.418 847.241 511.674 853.61 520.742 860.241C531.067 867.794 541.105 875.75 551.572 883.096C554.244 884.97 558.052 885.997 561.363 886.055C569.525 886.201 577.686 886.24 585.85 886.24C594.376 886.24 602.904 886.196 611.428 886.181C613.512 886.176 615.595 885.911 618.121 885.737L621.478 876.771C600.874 861.113 580.546 845.669 560.022 830.07C572.514 827.695 584.074 825.382 595.68 823.317C611.606 820.482 626.464 814.876 638.835 804.426C651.637 793.614 651.909 778.362 638.622 767.349C628.125 758.645 615.941 753.725 602.932 749.906C584.729 744.565 566.029 742.57 547.4 742.377C518.626 742.082 489.856 742 461.081 742ZM421.787 807.508C432.619 807.508 443.448 807.494 454.28 807.481C465.104 807.471 475.929 807.458 486.753 807.458C512.084 807.458 531.488 807.529 549.668 807.68L550.24 807.684C562.08 807.684 572.784 804.549 582.585 801.161C595.165 796.813 597.005 787.383 594.534 780.008L593.577 777.152L591.078 775.468C576.019 765.311 559.125 763.691 543.114 763.448C527.012 763.205 509.583 763.093 488.267 763.093C475.595 763.093 462.923 763.132 450.255 763.169C438.892 763.205 427.531 763.24 416.169 763.246C414.487 763.246 412.956 763.395 411.476 763.537C410.89 763.596 410.282 763.654 409.653 763.702L401.453 764.333V806.797L409.908 807.206C410.671 807.243 411.382 807.286 412.057 807.327C413.574 807.419 415.005 807.504 416.538 807.504L421.787 807.506M461.081 750.881C494.819 750.881 522.22 751 547.309 751.258C567.31 751.462 584.687 753.808 600.433 758.428C615.091 762.729 624.817 767.443 632.956 774.186C635.986 776.701 639.606 780.772 639.631 785.891C639.654 791.026 636.096 795.115 633.105 797.641C623.018 806.162 610.266 811.7 594.124 814.572C586.09 816.002 578.196 817.526 569.837 819.141C566.084 819.865 562.27 820.602 558.363 821.345L538.765 825.071L554.648 837.141L607.506 877.309L601.408 877.327C596.221 877.345 591.035 877.359 585.85 877.359C576.322 877.359 568.592 877.302 561.519 877.176C559.551 877.14 557.593 876.471 556.673 875.828C550.513 871.503 544.341 866.84 538.371 862.33C534.335 859.282 530.165 856.131 525.983 853.076C520.395 848.987 514.674 844.953 509.141 841.054C505.573 838.537 502.002 836.022 498.45 833.48C497.659 832.914 496.855 832.358 496.048 831.8C493.741 830.205 491.563 828.7 489.995 827.098C483.558 820.526 475.957 819.682 470.055 819.682C469.735 819.682 469.41 819.686 469.085 819.689C462.424 819.784 455.115 819.828 446.088 819.828C441.393 819.828 436.7 819.816 432.006 819.805C427.299 819.794 422.592 819.784 417.885 819.784H401.366V876.776H357.167V819.993H320.145V807.657H356.956V751.013C373.397 751.007 389.841 750.977 406.284 750.947C424.551 750.913 442.816 750.881 461.081 750.881Z" fill="#F4773A"/>
<path d="M129.87 881.174V768.073H57.639L56.8575 782.034H4.44043V746.948H308.129V781.978H255.694L254.895 768.102H183.06V881.172L129.87 881.174Z" fill="black"/>
<path d="M312.57 742.505H0V786.472H61.0567L61.8382 772.513H125.43V885.61H187.499V772.539H250.703C250.987 777.456 251.243 781.95 251.499 786.415H312.57V742.505ZM303.688 751.386V777.534H259.886L259.57 772.031L259.09 763.658H178.618V876.729H134.311V763.632H53.4401L52.9712 772.015L52.6586 777.593H8.88122V751.386H303.688Z" fill="#F4773A"/>
</svg>
