<svg width="1000" height="1000" viewBox="0 0 1000 1000" fill="none" xmlns="http://www.w3.org/2000/svg">
<path d="M499.999 636.842C324.418 636.842 181.579 494.002 181.579 318.418C181.579 142.85 324.418 0 499.999 0C675.576 0 818.421 142.85 818.421 318.418C818.421 494.002 675.572 636.842 499.999 636.842Z" fill="white"/>
<path d="M499.933 578.357C356.618 578.357 240.028 461.77 240.028 318.458C240.028 175.16 356.618 58.5654 499.933 58.5654C643.246 58.5654 759.841 175.16 759.841 318.458C759.841 461.77 643.243 578.357 499.933 578.357Z" fill="#F4773A"/>
<path d="M499.933 54.5459C354.405 54.5459 236.008 172.936 236.008 318.461C236.008 463.972 354.405 582.367 499.933 582.367C645.469 582.367 763.865 463.975 763.865 318.458C763.865 172.936 645.469 54.5459 499.933 54.5459ZM499.933 62.5844C641.25 62.5844 755.818 177.151 755.818 318.461C755.818 459.773 641.25 574.337 499.933 574.337C358.61 574.337 244.047 459.773 244.047 318.461C244.047 177.151 358.61 62.5844 499.933 62.5844Z" fill="black"/>
<path d="M499.93 0C324.32 0 181.449 142.863 181.449 318.454C181.449 494.054 324.32 636.922 499.93 636.922C675.542 636.922 818.41 494.054 818.41 318.454C818.41 142.863 675.542 0 499.93 0ZM499.93 8.03855C671.381 8.03855 810.371 147.015 810.371 318.454C810.371 489.904 671.378 628.878 499.93 628.878C328.481 628.878 189.488 489.904 189.488 318.454C189.488 147.015 328.481 8.03855 499.93 8.03855Z" fill="black"/>
<path d="M511.296 496.039C464.476 496.039 416.37 495.666 416.37 495.666C415.934 495.655 379.246 494.271 377.437 453.539C375.625 412.809 409.808 408.624 410.149 408.588L533.464 408.599C540.729 408.599 564.476 406.773 565.102 383.353C565.25 377.619 563.593 373.071 560.031 369.393C551.338 360.471 533.881 359.501 526.782 359.501C524.613 359.501 523.283 359.597 523.207 359.605L459.263 359.613C458.489 359.558 420.182 355.4 421.534 312.183C422.88 269.249 466.512 268.758 468.373 268.758L545.446 269.175C549.226 269.175 566.097 267.805 566.767 241.882C566.68 239.967 565.157 220.966 539.98 220.966C539.108 220.966 538.217 220.993 537.288 221.048C537.288 221.048 536.312 221.102 534.628 221.102C510.336 221.102 484.279 211.08 483.949 182.953C483.77 166.334 487.887 153.649 496.204 145.245C505.562 135.771 517.855 134.359 524.343 134.359H578.818C584.066 134.359 625.253 135.569 626.501 175.359C627.684 213.252 628.286 287.795 628.297 288.552C628.363 288.672 629.303 295.332 625.202 300.15C623.479 302.171 620.22 304.58 614.41 304.58L613.364 304.561C610.729 304.561 608.81 305.03 607.987 305.875C607.11 306.766 607.14 308.564 607.164 310.153V311.523C607.063 314.406 606.941 317.832 607.698 318.611C607.905 318.837 608.633 319.096 610.004 319.096H615.315C615.735 319.014 616.323 318.938 617.032 318.938C619.604 318.938 621.97 319.919 623.681 321.668C625.91 323.965 626.986 327.464 626.867 332.05C626.575 342.751 625.169 447.372 625.155 448.424C625.202 448.841 626.311 466.866 613.669 480.673C604.818 490.336 591.612 495.388 574.436 495.666C557.827 495.944 534.704 496.039 511.296 496.039Z" fill="black"/>
<path d="M579.217 130.331H579.108L578.569 130.342L524.345 130.334C512.047 130.334 501.04 134.62 493.339 142.416C484.251 151.596 479.733 165.256 479.934 182.985C480.289 214.049 508.422 225.112 534.627 225.112C536.485 225.112 537.556 225.047 537.556 225.047C538.349 225.006 539.175 224.992 539.973 224.992C561.583 224.992 562.695 240.475 562.741 242.233C562.188 263.477 549.609 265.15 545.764 265.15L468.462 264.733C451.294 264.733 418.688 274.632 417.516 312.048C416.347 349.625 443.819 362.187 458.504 363.582L458.886 363.62H523.217L523.498 363.601C523.612 363.593 524.836 363.528 526.781 363.528C531.915 363.528 549.31 364.141 557.155 372.19C559.954 375.084 561.202 378.594 561.079 383.245C560.567 402.492 541.603 404.571 533.469 404.571C532.94 404.571 532.605 404.557 532.52 404.557L410.584 404.546H410.142L409.714 404.592C396.47 406.034 371.836 418.13 373.416 453.715C374.989 489.27 402.09 499.338 416.206 499.692C416.824 499.692 464.993 500.066 511.295 500.066C538.505 500.066 559.779 499.924 574.5 499.692C592.826 499.376 607.01 493.886 616.633 483.389C629.506 469.326 629.307 451.268 629.185 448.21C629.258 442.379 630.612 342.57 630.882 332.167C631.019 326.439 629.577 321.959 626.555 318.853C624.083 316.318 620.69 314.918 617.031 314.918C616.254 314.918 615.567 314.983 615 315.065H611.104C611.095 314.084 611.139 312.945 611.166 312.04C611.194 311.204 611.194 310.683 611.169 310.095V308.765C611.632 308.672 612.319 308.588 613.349 308.588H613.444L614.409 308.596C621.759 308.596 625.991 305.424 628.253 302.765C632.858 297.358 632.594 290.527 632.313 288.006C632.253 281.426 631.648 211.545 630.517 175.222C629.408 139.784 597.745 130.331 579.217 130.331ZM579.217 138.372C583.646 138.372 621.355 139.427 622.484 175.478C623.672 213.768 624.282 288.568 624.282 288.568C624.282 288.568 626.22 300.557 614.409 300.557C614.273 300.557 614.137 300.557 614 300.549H613.349C601.773 300.549 603.255 308.105 603.144 311.381C602.92 317.738 602.574 323.103 610.003 323.103H615.889H615.709C615.709 323.103 616.249 322.956 617.031 322.956C619.156 322.956 623.059 324.03 622.843 331.946C622.554 342.791 621.132 448.366 621.132 448.366C621.132 448.366 624.132 490.815 574.375 491.638C557.779 491.921 534.692 492.016 511.295 492.016C464.489 492.016 416.407 491.64 416.407 491.64C416.407 491.64 383.107 490.815 381.452 453.361C379.779 415.925 410.584 412.585 410.584 412.585H532.082C532.082 412.585 532.586 412.612 533.471 412.612C540.104 412.612 568.388 410.993 569.124 383.455C569.81 357.74 537.987 355.478 526.781 355.478C524.391 355.478 522.928 355.587 522.928 355.587H459.265C459.265 355.587 424.313 352.249 425.561 312.31C426.782 273.175 466.737 272.771 468.366 272.771H468.424L545.402 273.191H545.762C548.789 273.191 570.015 272.123 570.789 241.99C570.789 241.99 569.998 216.94 539.984 216.94C539.044 216.94 538.079 216.978 537.079 217.022C537.079 217.022 536.18 217.082 534.627 217.082C524.735 217.082 488.336 214.894 487.976 182.903C487.554 145.858 509.518 138.386 524.345 138.386H578.792C578.792 138.386 578.939 138.372 579.217 138.372Z" fill="#F9FAF9"/>
<path d="M420.779 221.14C399.592 221.14 382.358 201.673 382.358 177.748C382.358 153.826 399.592 134.359 420.777 134.359C441.959 134.359 459.2 153.826 459.2 177.748C459.2 201.673 441.959 221.14 420.777 221.14" fill="black"/>
<path d="M420.781 130.331C397.375 130.331 378.335 151.596 378.335 177.756C378.335 203.907 397.375 225.167 420.778 225.167C444.181 225.167 463.221 203.907 463.221 177.753C463.221 151.594 444.181 130.334 420.778 130.334M420.778 138.372C439.78 138.372 455.177 156.003 455.177 177.756C455.177 199.493 439.78 217.12 420.778 217.12C401.776 217.12 386.379 199.49 386.379 177.756C386.379 156.003 401.776 138.372 420.778 138.372Z" fill="#F9FAF9"/>
<path d="M1000 742.462H700.733V798.745H664.009V828.904H701.035V885.613H999.915V842.724H939.474V855.619H762.205V828.474H861.405V798.441H762.37V772.566H939.199L939.897 786.488H1000V742.462ZM421.786 798.58H416.54C414.64 798.58 412.736 798.406 410.332 798.29V772.513C412.446 772.353 414.311 772.083 416.173 772.083C440.205 772.069 464.233 771.93 488.265 771.93C506.502 771.93 524.744 772.01 542.977 772.286C557.855 772.508 573.033 773.968 586.111 782.786C588.174 788.937 583.447 791.422 579.683 792.722C570.198 795.999 560.635 798.757 550.238 798.757C550.073 798.757 549.906 798.757 549.741 798.754C528.746 798.576 507.751 798.532 486.752 798.532C465.096 798.532 443.442 798.58 421.786 798.58ZM461.08 741.958C425.763 741.958 390.438 742.082 355.12 742.089C353.043 742.089 350.968 742.304 348.073 742.462V798.731H311.262V828.827H348.285V885.607H410.245V828.618H417.883C427.283 828.618 436.685 828.662 446.086 828.662C453.795 828.662 461.504 828.632 469.208 828.524C469.492 828.52 469.776 828.517 470.053 828.517C475.222 828.517 479.73 829.266 483.649 833.266C486.452 836.129 489.986 838.296 493.279 840.655C502.417 847.193 511.673 853.562 520.74 860.192C531.066 867.745 541.103 875.7 551.571 883.046C554.242 884.92 558.05 885.946 561.361 886.005C569.523 886.151 577.685 886.19 585.849 886.19C594.375 886.19 602.902 886.145 611.427 886.131C613.51 886.126 615.594 885.861 618.119 885.687L621.477 876.721C600.872 861.064 580.545 845.621 560.02 830.023C572.513 827.648 584.072 825.336 595.678 823.27C611.604 820.435 626.462 814.83 638.834 804.381C651.635 793.569 651.907 778.317 638.621 767.305C628.123 758.602 615.94 753.682 602.931 749.864C584.728 744.523 566.027 742.528 547.398 742.335C518.625 742.04 489.855 741.958 461.08 741.958ZM312.57 742.466H0V786.431H61.0567L61.8382 772.472H125.43V885.563H187.499V772.499H250.703C250.987 777.415 251.243 781.909 251.499 786.374H312.57V742.466Z" fill="#F4773A"/>
<path d="M74.0897 968.177C78.7346 964.884 81.0597 959.958 81.0597 953.403C81.0597 949.406 80.0313 945.971 77.9708 943.099C74.0755 937.574 66.951 934.81 56.599 934.81C46.192 934.81 39.0675 937.728 35.2272 943.566C33.1668 946.689 32.1384 950.653 32.1384 955.463C32.1384 959.333 33.1686 962.628 35.229 965.344C39.1226 970.527 46.2453 973.118 56.599 973.118C63.6117 973.118 69.4413 971.471 74.0897 968.177ZM17.7437 928.862H32.387V935.512C35.3708 933.243 38.6927 931.457 42.231 930.219C47.2933 928.347 53.2437 927.411 60.0823 927.411C70.2033 927.411 78.795 929.586 85.8574 933.945C92.9215 938.297 96.4527 944.52 96.4527 952.605C96.4527 963.534 91.3549 971.338 81.1663 976.022C74.7079 978.988 67.189 980.471 58.6151 980.471C51.876 980.471 46.224 979.644 41.659 977.988C38.984 977.052 36.0052 975.445 32.721 973.166V998.781H17.7437V928.862ZM118.451 928.862H133.013V978.784H118.451V928.862ZM118.451 909.988H133.013V919.542H118.451V909.988ZM155.394 972.134L207.486 936.167H159.243V928.627H227.309V935.512L175.552 971.244H228.865V978.784H155.394V972.134ZM242.204 972.134L294.898 936.167H246.098V928.627H314.95V935.512L262.596 971.244H316.526V978.784H242.204V972.134ZM402.386 947.925C401.772 944.272 400.345 941.353 398.111 939.169C393.974 935.108 387.071 933.08 377.405 933.08C370.478 933.08 364.662 934.478 359.969 937.272C355.275 940.066 352.786 943.616 352.509 947.925H402.386ZM396.937 928.233C402.93 929.904 407.495 932.064 410.632 934.718C413.656 937.247 415.671 940.197 416.681 943.57C417.577 945.881 418.026 949.565 418.026 954.623H352.17C352.451 959.726 354.603 963.82 358.63 966.903C362.657 969.987 368.89 971.528 377.334 971.528C385.221 971.528 391.51 970.072 396.207 967.154C398.835 965.459 400.701 963.5 401.795 961.275H416.758C416.363 963.115 415.053 965.168 412.827 967.429C410.649 969.658 408.135 971.531 405.376 972.979C400.789 975.478 395.111 977.164 388.345 978.038C384.709 978.537 380.597 978.787 376.012 978.787C364.81 978.787 355.319 976.516 347.532 971.974C339.747 967.429 335.853 961.069 335.853 952.889C335.853 944.835 339.773 938.293 347.617 933.267C355.458 928.24 365.708 925.727 378.368 925.727C384.753 925.727 390.944 926.563 396.937 928.233ZM438.842 928.627H452.448V937.291C453.562 935.606 456.293 933.553 460.643 931.133C464.992 928.714 470.006 927.503 475.683 927.503C475.949 927.503 476.399 927.521 477.036 927.551C477.672 927.581 478.759 927.643 480.298 927.737V936.636C479.518 936.548 478.736 936.485 477.953 936.448C477.17 936.416 476.387 936.4 475.603 936.401C468.391 936.401 462.844 937.769 458.974 940.501C455.102 943.233 453.165 946.376 453.165 949.936V978.784H438.842V928.627ZM499.817 928.862H514.378V978.784H499.817V928.862ZM499.817 909.988H514.378V919.542H499.817V909.988ZM558.968 971.203C562.151 972.605 565.922 973.306 570.277 973.306C575.583 973.306 580.72 972.621 585.691 971.246C594.07 968.972 598.258 965.248 598.258 960.072V953.294C596.418 953.952 594.048 954.5 591.151 954.939C588.323 955.37 585.478 955.683 582.624 955.875L573.51 956.531C568.048 956.937 563.939 957.575 561.188 958.447C556.523 959.912 554.193 962.248 554.193 965.457C554.193 967.885 555.785 969.802 558.968 971.203ZM590.72 948.431C594.182 948.181 596.5 947.371 597.672 945.998C598.342 945.248 598.676 944.167 598.676 942.755C598.676 939.872 596.851 937.782 593.199 936.48C589.549 935.18 584.323 934.529 577.526 934.529C569.666 934.529 564.09 935.719 560.802 938.105C558.962 939.423 557.765 941.385 557.209 943.989H543.134C543.413 937.79 546.997 933.474 553.887 931.05C560.774 928.622 568.765 927.409 577.858 927.409C588.402 927.409 596.963 928.535 603.548 930.782C610.074 933.03 613.337 936.528 613.337 941.272V970.17C613.337 971.043 613.658 971.747 614.299 972.276C614.941 972.805 616.298 973.072 618.363 973.072C619.033 973.072 619.788 973.047 620.625 973.001C621.463 972.953 622.355 972.884 623.307 972.791V979.018C620.96 979.391 619.172 979.628 617.944 979.722C616.715 979.816 615.04 979.862 612.918 979.862C607.724 979.862 603.955 978.832 601.608 976.771C600.379 975.679 599.514 974.134 599.011 972.136C595.94 974.384 591.526 976.336 585.775 977.988C580.023 979.644 573.682 980.471 566.758 980.471C558.437 980.471 551.637 979.059 546.36 976.237C541.083 973.416 538.443 969.885 538.443 965.644C538.443 960.998 541.04 957.397 546.234 954.84C551.427 952.282 558.241 950.707 566.675 950.115L590.72 948.431ZM634.408 958.273V950.405H672.402V929.846H687.303V950.405H725.297V958.273H687.303V978.786H672.4V958.271L634.408 958.273ZM799.695 939.68C795.057 936.684 789.144 935.185 781.961 935.185C771.213 935.185 763.861 937.963 759.9 943.52C757.808 946.486 756.761 950.373 756.761 955.181C756.761 960.832 758.84 965.134 762.996 968.083C767.152 971.035 772.74 972.509 779.757 972.509C790.729 972.509 798.45 969.777 802.919 964.314C805.406 961.223 806.653 957.618 806.653 953.495C806.653 947.282 804.333 942.677 799.695 939.68ZM797.818 930.64C800.704 931.734 803.649 933.327 806.653 935.418V929.094H820.809V974.711C820.809 981.08 819.108 986.107 815.71 989.791C809.361 996.597 797.379 1000 779.757 1000C769.952 1000 761.708 998.789 755.021 996.369C748.335 993.95 744.594 990.165 743.798 985.013H759.404C760.14 987.261 761.611 988.995 763.817 990.212C767.263 992.085 772.694 993.021 780.101 993.021C791.807 993.021 799.466 990.743 803.086 986.183C805.235 983.5 806.226 978.706 806.056 971.807C802.997 974.365 799.317 976.272 795.013 977.521C790.709 978.77 785.016 979.393 777.936 979.393C768.081 979.393 759.461 977.466 752.069 973.608C744.679 969.754 740.985 963.378 740.985 954.479C740.985 946.081 744.706 939.524 752.154 934.81C759.603 930.096 768.593 927.737 779.128 927.737C786.263 927.737 792.492 928.704 797.818 930.64ZM844.787 926.851H858.393V935.515C859.508 933.83 862.24 931.776 866.59 929.357C870.938 926.938 875.951 925.727 881.628 925.727C881.894 925.727 882.344 925.745 882.981 925.775C883.617 925.805 884.704 925.867 886.243 925.961V934.86C885.463 934.771 884.681 934.709 883.898 934.672C883.115 934.64 882.332 934.624 881.548 934.625C874.335 934.625 868.791 935.993 864.919 938.725C861.047 941.456 859.11 944.6 859.11 948.16V977.008H844.787V926.851ZM905.762 928.862H920.323V978.784H905.762V928.862ZM905.762 909.988H920.323V919.542H905.762V909.988ZM947.692 909.988H962.014V978.784H947.692V909.988ZM983.897 909.988H998.221V978.784H983.897V909.988ZM705.471 881.17V824.458H668.446V803.183H705.17V746.897H995.556V782.044H944.12L943.42 768.124H757.925V802.88H856.961V824.032H757.763V860.057H943.91V847.163H995.471V881.17H705.471Z" fill="white"/>
<path d="M1000 742.463H700.733V798.745H664.009V828.904H701.035V885.613H999.915V842.725H939.474V855.619H762.205V828.474H861.405V798.442H762.37V772.567H939.199L939.897 786.488H1000V742.463ZM991.119 751.344V777.607H948.345L948.07 772.121L947.647 763.686H753.489V807.322H852.524V819.596H753.326V864.5H948.356V851.605H991.033V876.732H709.916V820.025H672.89V807.628H709.614V751.345L991.119 751.344Z" fill="#F4773A"/>
<path d="M486.915 802.97C512.184 802.97 531.548 803.036 549.705 803.19L550.241 803.192C561.428 803.192 571.7 800.176 581.134 796.915C592.781 792.89 591.44 784.704 590.322 781.374L589.845 779.942L588.596 779.1C574.498 769.598 558.371 768.072 543.046 767.841C526.955 767.6 509.528 767.486 488.208 767.486C475.566 767.486 462.925 767.525 450.285 767.562C438.912 767.598 427.542 767.633 416.17 767.637C414.701 767.639 413.277 767.779 411.902 767.911C411.286 767.971 410.652 768.031 409.993 768.083L405.893 768.399V802.519L410.12 802.721C410.902 802.76 411.627 802.803 412.316 802.846C413.767 802.934 415.137 803.013 416.536 803.014L421.805 803.016C432.659 803.016 443.512 803.005 454.365 802.993C465.214 802.981 476.065 802.968 486.913 802.968M585.869 881.747C576.31 881.747 568.547 881.687 561.441 881.561C558.794 881.515 555.92 880.669 554.122 879.408C547.9 875.041 541.696 870.353 535.698 865.824C531.61 862.719 527.498 859.646 523.361 856.606C517.807 852.54 512.102 848.519 506.585 844.635C503.006 842.109 499.427 839.587 495.867 837.04C495.091 836.488 494.31 835.942 493.524 835.402C491.037 833.683 488.689 832.063 486.822 830.156C481.572 824.795 475.401 824.072 470.058 824.072L469.147 824.079C462.458 824.172 455.122 824.216 446.057 824.216C441.359 824.216 436.661 824.205 431.961 824.195C427.254 824.182 422.549 824.172 417.844 824.172H405.806V881.163H352.726V824.385H315.704V803.167H352.515V746.623C353.384 746.564 354.255 746.531 355.126 746.526C372.208 746.522 389.298 746.49 406.385 746.46C424.593 746.426 442.802 746.393 461.008 746.393C494.801 746.393 522.239 746.513 547.355 746.771C567.769 746.981 585.541 749.384 601.682 754.119C611.829 757.097 624.874 761.675 635.787 770.72C641.182 775.189 644.047 780.413 644.07 785.821C644.096 791.242 641.295 796.487 635.97 800.984C625.268 810.025 611.836 815.881 594.9 818.895C586.889 820.321 578.995 821.845 570.642 823.46C566.895 824.181 563.089 824.916 559.192 825.657L549.392 827.522L616.161 878.255L614.954 881.484C613.657 881.594 612.513 881.683 611.421 881.685L601.467 881.713C596.268 881.731 591.068 881.749 585.871 881.749" fill="white"/>
<path d="M421.787 798.58H416.542C414.641 798.58 412.737 798.406 410.334 798.29V772.513C412.448 772.353 414.313 772.083 416.174 772.083C440.207 772.069 464.234 771.93 488.267 771.93C506.503 771.93 524.745 772.01 542.979 772.286C557.856 772.508 573.034 773.968 586.113 782.786C588.175 788.937 583.449 791.422 579.685 792.722C570.2 795.999 560.636 798.757 550.24 798.757C550.075 798.757 549.908 798.757 549.743 798.754C528.747 798.576 507.752 798.532 486.753 798.532C465.097 798.532 443.443 798.58 421.787 798.58ZM461.081 741.958C425.764 741.958 390.44 742.082 355.121 742.089C353.045 742.089 350.97 742.304 348.075 742.462V798.731H311.264V828.827H348.286V885.607H410.247V828.618H417.885C427.285 828.618 436.686 828.662 446.088 828.662C453.797 828.662 461.506 828.632 469.209 828.524C469.493 828.52 469.778 828.517 470.055 828.517C475.224 828.517 479.732 829.266 483.65 833.266C486.453 836.129 489.988 838.296 493.281 840.655C502.418 847.193 511.674 853.562 520.742 860.192C531.067 867.745 541.105 875.7 551.572 883.046C554.244 884.92 558.052 885.946 561.363 886.005C569.525 886.151 577.686 886.19 585.85 886.19C594.376 886.19 602.904 886.145 611.428 886.131C613.511 886.126 615.595 885.861 618.121 885.687L621.478 876.721C600.873 861.064 580.546 845.621 560.022 830.023C572.514 827.648 584.074 825.336 595.68 823.27C611.606 820.435 626.464 814.83 638.835 804.381C651.637 793.569 651.909 778.317 638.622 767.305C628.125 758.602 615.941 753.682 602.932 749.864C584.729 744.523 566.029 742.528 547.4 742.335C518.626 742.04 489.856 741.958 461.081 741.958ZM421.787 807.462C432.619 807.462 443.448 807.448 454.28 807.436C465.104 807.425 475.929 807.412 486.753 807.412C512.084 807.412 531.488 807.484 549.668 807.634L550.24 807.638C562.08 807.638 572.784 804.503 582.585 801.116C595.165 796.768 597.005 787.338 594.534 779.964L593.577 777.108L591.078 775.424C576.019 765.268 559.125 763.648 543.114 763.405C527.012 763.162 509.583 763.05 488.267 763.05C475.595 763.05 462.923 763.089 450.255 763.126C438.892 763.162 427.531 763.197 416.169 763.202C414.487 763.202 412.956 763.352 411.476 763.494C410.89 763.552 410.282 763.611 409.653 763.659L401.453 764.289V806.752L409.908 807.16C410.671 807.198 411.382 807.24 412.057 807.281C413.574 807.373 415.005 807.459 416.538 807.459L421.787 807.46M461.081 750.839C494.819 750.839 522.22 750.958 547.309 751.215C567.31 751.42 584.687 753.766 600.433 758.386C615.091 762.686 624.817 767.399 632.956 774.142C635.986 776.657 639.606 780.728 639.631 785.847C639.654 790.981 636.096 795.07 633.105 797.596C623.018 806.116 610.266 811.654 594.124 814.526C586.09 815.956 578.196 817.48 569.837 819.094C566.084 819.819 562.27 820.556 558.363 821.298L538.765 825.025L554.648 837.094L607.506 877.259L601.408 877.277C596.221 877.295 591.035 877.309 585.85 877.309C576.322 877.309 568.592 877.252 561.519 877.126C559.551 877.091 557.593 876.421 556.673 875.778C550.513 871.453 544.341 866.791 538.371 862.281C534.335 859.233 530.165 856.082 525.983 853.027C520.395 848.939 514.674 844.905 509.141 841.006C505.573 838.49 502.002 835.975 498.45 833.433C497.659 832.866 496.855 832.31 496.048 831.753C493.741 830.158 491.563 828.653 489.995 827.051C483.558 820.48 475.957 819.636 470.055 819.636C469.735 819.636 469.41 819.639 469.085 819.643C462.424 819.737 455.115 819.782 446.088 819.782C441.393 819.782 436.7 819.769 432.006 819.758C427.299 819.748 422.592 819.737 417.885 819.737H401.366V876.727H357.167V819.947H320.145V807.611H356.956V750.97C373.397 750.965 389.841 750.935 406.284 750.904C424.551 750.871 442.816 750.839 461.081 750.839Z" fill="#F4773A"/>
<path d="M129.87 881.123V768.029H57.639L56.8575 781.989H4.44043V746.905H308.129V781.933H255.694L254.895 768.057H183.06V881.121L129.87 881.123Z" fill="white"/>
<path d="M312.57 742.463H0V786.428H61.0567L61.8382 772.469H125.43V885.56H187.499V772.496H250.703C250.987 777.412 251.243 781.906 251.499 786.371H312.57V742.463ZM303.688 751.344V777.49H259.886L259.57 771.988L259.09 763.615H178.618V876.679H134.311V763.588H53.4401L52.9712 771.972L52.6586 777.549H8.88122V751.344H303.688Z" fill="#F4773A"/>
</svg>
