<svg width="2050" height="637" viewBox="0 0 2050 637" fill="none" xmlns="http://www.w3.org/2000/svg">
<path d="M318.549 636.842C142.969 636.842 0.129883 494.002 0.129883 318.418C0.129883 142.85 142.969 0 318.549 0C494.127 0 636.972 142.85 636.972 318.418C636.972 494.002 494.123 636.842 318.549 636.842Z" fill="white"/>
<path d="M318.484 578.357C175.169 578.357 58.5791 461.77 58.5791 318.458C58.5791 175.16 175.169 58.5654 318.484 58.5654C461.796 58.5654 578.392 175.16 578.392 318.458C578.392 461.77 461.794 578.357 318.484 578.357Z" fill="#F4773A"/>
<path d="M318.484 54.5459C172.956 54.5459 54.5591 172.936 54.5591 318.461C54.5591 463.972 172.956 582.367 318.484 582.367C464.019 582.367 582.416 463.975 582.416 318.458C582.416 172.936 464.019 54.5459 318.484 54.5459ZM318.484 62.5844C459.801 62.5844 574.369 177.151 574.369 318.461C574.369 459.773 459.801 574.337 318.484 574.337C177.161 574.337 62.5981 459.773 62.5981 318.461C62.5981 177.151 177.161 62.5844 318.484 62.5844Z" fill="black"/>
<path d="M318.481 0C142.871 0 0 142.863 0 318.454C0 494.054 142.871 636.922 318.481 636.922C494.093 636.922 636.961 494.054 636.961 318.454C636.961 142.863 494.093 0 318.481 0ZM318.481 8.03855C489.932 8.03855 628.922 147.015 628.922 318.454C628.922 489.904 489.929 628.878 318.481 628.878C147.032 628.878 8.03895 489.904 8.03895 318.454C8.03895 147.015 147.032 8.03855 318.481 8.03855Z" fill="black"/>
<path d="M329.846 496.039C283.027 496.039 234.921 495.666 234.921 495.666C234.485 495.655 197.797 494.271 195.988 453.539C194.175 412.809 228.359 408.624 228.699 408.588L352.015 408.599C359.28 408.599 383.026 406.773 383.653 383.353C383.8 377.619 382.144 373.071 378.582 369.393C369.889 360.471 352.432 359.501 345.333 359.501C343.164 359.501 341.834 359.597 341.758 359.605L277.814 359.613C277.04 359.558 238.733 355.4 240.085 312.183C241.431 269.249 285.062 268.758 286.924 268.758L363.997 269.175C367.777 269.175 384.648 267.805 385.318 241.882C385.231 239.967 383.708 220.966 358.531 220.966C357.659 220.966 356.768 220.993 355.838 221.048C355.838 221.048 354.863 221.102 353.179 221.102C328.887 221.102 302.83 211.08 302.5 182.953C302.32 166.334 306.438 153.649 314.755 145.245C324.113 135.771 336.406 134.359 342.894 134.359H397.369C402.617 134.359 443.804 135.569 445.052 175.359C446.235 213.252 446.837 287.795 446.848 288.552C446.913 288.672 447.854 295.332 443.752 300.15C442.03 302.171 438.771 304.58 432.961 304.58L431.915 304.561C429.279 304.561 427.361 305.03 426.538 305.875C425.66 306.766 425.69 308.564 425.715 310.153V311.523C425.614 314.406 425.492 317.832 426.249 318.611C426.456 318.837 427.184 319.096 428.555 319.096H433.866C434.285 319.014 434.874 318.938 435.582 318.938C438.155 318.938 440.52 319.919 442.232 321.668C444.461 323.965 445.537 327.464 445.417 332.05C445.126 342.751 443.72 447.372 443.706 448.424C443.752 448.841 444.861 466.866 432.22 480.673C423.369 490.336 410.163 495.388 392.987 495.666C376.377 495.944 353.255 496.039 329.846 496.039Z" fill="black"/>
<path d="M397.768 130.331H397.659L397.12 130.342L342.896 130.334C330.598 130.334 319.591 134.62 311.89 142.416C302.802 151.596 298.283 165.256 298.485 182.985C298.839 214.049 326.973 225.112 353.178 225.112C355.036 225.112 356.107 225.047 356.107 225.047C356.9 225.006 357.726 224.992 358.524 224.992C380.134 224.992 381.246 240.475 381.292 242.233C380.739 263.477 368.16 265.15 364.315 265.15L287.013 264.733C269.845 264.733 237.239 274.632 236.067 312.048C234.898 349.625 262.37 362.187 277.055 363.582L277.437 363.62H341.768L342.048 363.601C342.163 363.593 343.386 363.528 345.332 363.528C350.466 363.528 367.86 364.141 375.706 372.19C378.505 375.084 379.753 378.594 379.63 383.245C379.118 402.492 360.154 404.571 352.019 404.571C351.491 404.571 351.156 404.557 351.071 404.557L229.134 404.546H228.693L228.265 404.592C215.021 406.034 190.387 418.13 191.967 453.715C193.539 489.27 220.64 499.338 234.756 499.692C235.375 499.692 283.543 500.066 329.845 500.066C357.055 500.066 378.33 499.924 393.051 499.692C411.377 499.376 425.561 493.886 435.184 483.389C448.057 469.326 447.858 451.268 447.735 448.21C447.809 442.379 449.163 342.57 449.433 332.167C449.569 326.439 448.128 321.959 445.106 318.853C442.634 316.318 439.241 314.918 435.581 314.918C434.805 314.918 434.118 314.983 433.551 315.065H429.654C429.646 314.084 429.69 312.945 429.717 312.04C429.744 311.204 429.744 310.683 429.72 310.095V308.765C430.183 308.672 430.87 308.588 431.9 308.588H431.995L432.96 308.596C440.309 308.596 444.542 305.424 446.803 302.765C451.409 297.358 451.144 290.527 450.864 288.006C450.804 281.426 450.199 211.545 449.068 175.222C447.959 139.784 416.296 130.331 397.768 130.331ZM397.768 138.372C402.196 138.372 439.906 139.427 441.034 175.478C442.222 213.768 442.833 288.568 442.833 288.568C442.833 288.568 444.77 300.557 432.96 300.557C432.824 300.557 432.687 300.557 432.551 300.549H431.9C420.324 300.549 421.806 308.105 421.694 311.381C421.471 317.738 421.125 323.103 428.553 323.103H434.44H434.26C434.26 323.103 434.799 322.956 435.581 322.956C437.707 322.956 441.609 324.03 441.394 331.946C441.105 342.791 439.683 448.366 439.683 448.366C439.683 448.366 442.683 490.815 392.926 491.638C376.33 491.921 353.243 492.016 329.845 492.016C283.039 492.016 234.958 491.64 234.958 491.64C234.958 491.64 201.657 490.815 200.003 453.361C198.33 415.925 229.134 412.585 229.134 412.585H350.632C350.632 412.585 351.136 412.612 352.022 412.612C358.655 412.612 386.939 410.993 387.674 383.455C388.361 357.74 356.538 355.478 345.332 355.478C342.942 355.478 341.479 355.587 341.479 355.587H277.815C277.815 355.587 242.863 352.249 244.112 312.31C245.332 273.175 285.288 272.771 286.917 272.771H286.974L363.953 273.191H364.312C367.34 273.191 388.566 272.123 389.339 241.99C389.339 241.99 388.549 216.94 358.535 216.94C357.595 216.94 356.63 216.978 355.63 217.022C355.63 217.022 354.731 217.082 353.178 217.082C343.286 217.082 306.887 214.894 306.527 182.903C306.105 145.858 328.069 138.386 342.896 138.386H397.343C397.343 138.386 397.49 138.372 397.768 138.372Z" fill="#F9FAF9"/>
<path d="M239.33 221.14C218.143 221.14 200.909 201.673 200.909 177.748C200.909 153.826 218.143 134.359 239.327 134.359C260.509 134.359 277.751 153.826 277.751 177.748C277.751 201.673 260.509 221.14 239.327 221.14" fill="black"/>
<path d="M239.332 130.331C215.926 130.331 196.886 151.596 196.886 177.756C196.886 203.907 215.926 225.167 239.329 225.167C262.732 225.167 281.772 203.907 281.772 177.753C281.772 151.594 262.732 130.334 239.329 130.334M239.329 138.372C258.331 138.372 273.728 156.003 273.728 177.756C273.728 199.493 258.331 217.12 239.329 217.12C220.327 217.12 204.93 199.49 204.93 177.756C204.93 156.003 220.327 138.372 239.329 138.372Z" fill="#F9FAF9"/>
<path d="M2049.52 145.679H1646.55V221.465H1597.1V262.074H1646.96V338.434H2049.41V280.683H1968.02V298.047H1729.32V261.496H1862.9V221.056H1729.55V186.215H1967.65L1968.59 204.96H2049.52V145.679ZM1270.94 221.242H1263.88C1261.32 221.242 1258.76 221.008 1255.52 220.852V186.143C1258.37 185.928 1260.88 185.564 1263.38 185.564C1295.75 185.545 1328.1 185.358 1360.46 185.358C1385.01 185.358 1409.58 185.466 1434.13 185.837C1454.16 186.136 1474.6 188.102 1492.21 199.976C1494.99 208.258 1488.62 211.604 1483.56 213.355C1470.78 217.767 1457.91 221.481 1443.91 221.481C1443.68 221.481 1443.46 221.481 1443.24 221.477C1414.97 221.237 1386.7 221.178 1358.42 221.178C1329.26 221.178 1300.1 221.242 1270.94 221.242ZM1323.85 145C1276.3 145 1228.73 145.167 1181.18 145.177C1178.38 145.177 1175.59 145.466 1171.69 145.679V221.446H1122.12V261.971H1171.97V338.427H1255.4V261.689H1265.69C1278.35 261.689 1291 261.749 1303.66 261.749C1314.04 261.749 1324.42 261.708 1334.8 261.563C1335.18 261.558 1335.56 261.553 1335.94 261.553C1342.9 261.553 1348.97 262.562 1354.24 267.948C1358.02 271.803 1362.78 274.721 1367.21 277.897C1379.51 286.701 1391.98 295.277 1404.19 304.205C1418.09 314.374 1431.61 325.086 1445.7 334.978C1449.3 337.501 1454.43 338.883 1458.88 338.962C1469.87 339.158 1480.86 339.211 1491.86 339.211C1503.34 339.211 1514.82 339.151 1526.3 339.132C1529.1 339.125 1531.91 338.769 1535.31 338.534L1539.83 326.461C1512.09 305.379 1484.72 284.584 1457.08 263.581C1473.9 260.383 1489.47 257.27 1505.09 254.488C1526.54 250.671 1546.54 243.123 1563.2 229.053C1580.44 214.496 1580.81 193.959 1562.92 179.131C1548.78 167.412 1532.38 160.787 1514.86 155.645C1490.35 148.453 1465.17 145.768 1440.08 145.507C1401.34 145.11 1362.6 145 1323.85 145ZM1123.88 145.684H703V204.884H785.214L786.266 186.088H871.893V338.367H955.471V186.124H1040.58C1040.96 192.744 1041.3 198.795 1041.65 204.807H1123.88V145.684Z" fill="#F4773A"/>
<path d="M802.763 449.608C809.018 445.174 812.148 438.542 812.148 429.715C812.148 424.334 810.764 419.708 807.989 415.841C802.744 408.401 793.151 404.679 779.212 404.679C765.198 404.679 755.605 408.609 750.434 416.47C747.66 420.675 746.275 426.013 746.275 432.489C746.275 437.7 747.662 442.137 750.437 445.794C755.679 452.772 765.27 456.262 779.212 456.262C788.654 456.262 796.504 454.045 802.763 449.608ZM726.892 396.67H746.61V405.624C750.627 402.569 755.1 400.164 759.865 398.497C766.681 395.976 774.694 394.716 783.902 394.716C797.53 394.716 809.099 397.646 818.609 403.515C828.121 409.374 832.875 417.754 832.875 428.641C832.875 443.357 826.011 453.865 812.292 460.172C803.596 464.166 793.471 466.163 781.926 466.163C772.852 466.163 765.241 465.049 759.095 462.82C755.493 461.559 751.482 459.395 747.059 456.326V490.818H726.892V396.67ZM862.497 396.67H882.105V463.891H862.497V396.67ZM862.497 371.257H882.105V384.121H862.497V371.257ZM912.241 454.937L982.384 406.507H917.424V396.354H1009.08V405.624L939.385 453.739H1011.17V463.891H912.241V454.937ZM1029.13 454.937L1100.09 406.507H1034.38V396.354H1127.09V405.624L1056.59 453.739H1129.21V463.891H1029.13V454.937ZM1244.82 422.339C1243.99 417.42 1242.07 413.49 1239.06 410.548C1233.49 405.081 1224.2 402.35 1211.18 402.35C1201.86 402.35 1194.02 404.232 1187.71 407.994C1181.38 411.756 1178.03 416.537 1177.66 422.339H1244.82ZM1237.48 395.823C1245.55 398.074 1251.7 400.982 1255.92 404.555C1260 407.961 1262.71 411.933 1264.07 416.475C1265.28 419.586 1265.88 424.547 1265.88 431.358H1177.2C1177.58 438.229 1180.48 443.742 1185.9 447.894C1191.32 452.045 1199.72 454.121 1211.09 454.121C1221.71 454.121 1230.18 452.16 1236.5 448.231C1240.04 445.949 1242.55 443.311 1244.02 440.314H1264.17C1263.64 442.792 1261.88 445.557 1258.88 448.601C1255.95 451.603 1252.56 454.125 1248.85 456.075C1242.67 459.44 1235.02 461.71 1225.91 462.887C1221.02 463.559 1215.48 463.896 1209.31 463.896C1194.22 463.896 1181.44 460.837 1170.96 454.722C1160.48 448.601 1155.23 440.037 1155.23 429.024C1155.23 418.178 1160.51 409.369 1171.07 402.601C1181.63 395.833 1195.43 392.449 1212.48 392.449C1221.08 392.449 1229.41 393.575 1237.48 395.823ZM1293.91 396.354H1312.23V408.021C1313.73 405.751 1317.41 402.986 1323.27 399.729C1329.12 396.471 1335.87 394.84 1343.52 394.84C1343.88 394.84 1344.48 394.864 1345.34 394.905C1346.2 394.946 1347.66 395.029 1349.73 395.156V407.138C1348.68 407.019 1347.63 406.935 1346.57 406.884C1345.52 406.842 1344.46 406.821 1343.41 406.822C1333.7 406.822 1326.23 408.664 1321.02 412.342C1315.8 416.021 1313.2 420.254 1313.2 425.046V463.891H1293.91V396.354ZM1376.01 396.67H1395.62V463.891H1376.01V396.67ZM1376.01 371.257H1395.62V384.121H1376.01V371.257ZM1455.66 453.684C1459.95 455.571 1465.02 456.515 1470.89 456.515C1478.03 456.515 1484.95 455.592 1491.64 453.741C1502.93 450.68 1508.57 445.665 1508.57 438.695V429.569C1506.09 430.454 1502.9 431.193 1499 431.784C1495.19 432.364 1491.36 432.785 1487.51 433.044L1475.24 433.927C1467.89 434.474 1462.36 435.333 1458.65 436.507C1452.37 438.48 1449.23 441.625 1449.23 445.947C1449.23 449.216 1451.37 451.797 1455.66 453.684ZM1498.42 423.021C1503.08 422.684 1506.2 421.593 1507.78 419.744C1508.68 418.735 1509.13 417.278 1509.13 415.377C1509.13 411.496 1506.67 408.681 1501.75 406.928C1496.84 405.177 1489.8 404.302 1480.65 404.302C1470.07 404.302 1462.56 405.904 1458.13 409.116C1455.65 410.89 1454.04 413.533 1453.29 417.039H1434.34C1434.72 408.693 1439.54 402.881 1448.82 399.616C1458.09 396.347 1468.85 394.714 1481.1 394.714C1495.29 394.714 1506.82 396.23 1515.69 399.255C1524.48 402.283 1528.87 406.992 1528.87 413.38V452.292C1528.87 453.468 1529.3 454.415 1530.17 455.128C1531.03 455.841 1532.86 456.2 1535.64 456.2C1536.54 456.2 1537.56 456.166 1538.68 456.104C1539.81 456.039 1541.01 455.946 1542.29 455.822V464.207C1539.14 464.709 1536.73 465.027 1535.07 465.154C1533.42 465.281 1531.16 465.343 1528.31 465.343C1521.31 465.343 1516.24 463.956 1513.08 461.181C1511.42 459.71 1510.26 457.63 1509.58 454.939C1505.45 457.967 1499.5 460.595 1491.76 462.82C1484.01 465.049 1475.47 466.163 1466.15 466.163C1454.95 466.163 1445.79 464.262 1438.68 460.461C1431.58 456.664 1428.02 451.909 1428.02 446.198C1428.02 439.941 1431.52 435.094 1438.51 431.65C1445.51 428.206 1454.68 426.084 1466.04 425.288L1498.42 423.021ZM1557.24 436.273V425.678H1608.4V397.995H1628.47V425.678H1679.63V436.273H1628.47V463.893H1608.4V436.27L1557.24 436.273ZM1779.81 411.237C1773.56 407.203 1765.6 405.184 1755.93 405.184C1741.45 405.184 1731.55 408.925 1726.22 416.408C1723.4 420.402 1721.99 425.635 1721.99 432.109C1721.99 439.719 1724.79 445.511 1730.39 449.482C1735.99 453.456 1743.51 455.441 1752.96 455.441C1767.73 455.441 1778.13 451.763 1784.15 444.407C1787.49 440.245 1789.17 435.39 1789.17 429.839C1789.17 421.473 1786.05 415.272 1779.81 411.237ZM1777.28 399.064C1781.16 400.537 1785.13 402.682 1789.17 405.497V396.983H1808.24V458.407C1808.24 466.983 1805.94 473.752 1801.37 478.712C1792.82 487.877 1776.69 492.459 1752.96 492.459C1739.76 492.459 1728.66 490.828 1719.65 487.57C1710.65 484.313 1705.61 479.217 1704.54 472.278H1725.55C1726.54 475.306 1728.52 477.64 1731.49 479.279C1736.13 481.802 1743.45 483.062 1753.42 483.062C1769.18 483.062 1779.5 479.994 1784.37 473.855C1787.27 470.241 1788.6 463.786 1788.37 454.497C1784.25 457.941 1779.3 460.509 1773.5 462.191C1767.71 463.872 1760.04 464.711 1750.51 464.711C1737.24 464.711 1725.63 462.116 1715.68 456.922C1705.73 451.732 1700.75 443.146 1700.75 431.164C1700.75 419.857 1705.76 411.027 1715.79 404.679C1725.82 398.332 1737.93 395.156 1752.11 395.156C1761.72 395.156 1770.11 396.457 1777.28 399.064ZM1840.52 393.963H1858.84V405.629C1860.35 403.359 1864.02 400.595 1869.88 397.337C1875.74 394.08 1882.49 392.449 1890.13 392.449C1890.49 392.449 1891.09 392.473 1891.95 392.513C1892.81 392.554 1894.27 392.638 1896.34 392.764V404.746C1895.29 404.627 1894.24 404.543 1893.19 404.493C1892.13 404.45 1891.08 404.429 1890.02 404.431C1880.31 404.431 1872.84 406.272 1867.63 409.951C1862.42 413.629 1859.81 417.862 1859.81 422.655V461.499H1840.52V393.963ZM1922.63 396.67H1942.23V463.891H1922.63V396.67ZM1922.63 371.257H1942.23V384.121H1922.63V371.257ZM1979.09 371.257H1998.37V463.891H1979.09V371.257ZM2027.84 371.257H2047.12V463.891H2027.84V371.257ZM1652.93 332.453V256.088H1603.08V227.442H1652.53V151.651H2043.54V198.977H1974.28L1973.33 180.234H1723.56V227.033H1856.92V255.514H1723.34V304.024H1973.99V286.66H2043.42V332.453H1652.93Z" fill="white"/>
<path d="M2049.52 145.68H1646.55V221.465H1597.1V262.075H1646.96V338.434H2049.4V280.684H1968.02V298.047H1729.32V261.496H1862.9V221.056H1729.55V186.215H1967.65L1968.59 204.961H2049.52V145.68ZM2037.56 157.638V193.003H1979.97L1979.59 185.615L1979.03 174.257H1717.59V233.014H1850.94V249.54H1717.37V310.005H1979.98V292.642H2037.45V326.476H1658.92V250.119H1609.06V233.426H1658.51V157.64L2037.56 157.638Z" fill="#F4773A"/>
<path d="M1358.64 227.154C1392.67 227.154 1418.74 227.243 1443.19 227.451L1443.91 227.453C1458.97 227.453 1472.81 223.392 1485.51 219.001C1501.19 213.582 1499.38 202.559 1497.88 198.075L1497.24 196.147L1495.56 195.013C1476.57 182.218 1454.86 180.164 1434.22 179.853C1412.55 179.528 1389.09 179.375 1360.38 179.375C1343.36 179.375 1326.34 179.427 1309.32 179.477C1294 179.525 1278.69 179.573 1263.38 179.578C1261.4 179.58 1259.49 179.769 1257.63 179.946C1256.8 180.027 1255.95 180.109 1255.06 180.178L1249.54 180.604V226.547L1255.24 226.819C1256.29 226.872 1257.26 226.929 1258.19 226.987C1260.15 227.106 1261.99 227.212 1263.87 227.214L1270.97 227.216C1285.58 227.216 1300.2 227.202 1314.81 227.185C1329.42 227.169 1344.03 227.152 1358.64 227.152M1491.88 333.229C1479.01 333.229 1468.56 333.148 1458.99 332.978C1455.43 332.916 1451.56 331.778 1449.14 330.08C1440.76 324.199 1432.4 317.887 1424.33 311.789C1418.82 307.607 1413.29 303.469 1407.72 299.376C1400.24 293.902 1392.56 288.487 1385.13 283.257C1380.31 279.856 1375.49 276.46 1370.69 273.03C1369.65 272.286 1368.6 271.551 1367.54 270.825C1364.19 268.51 1361.03 266.329 1358.52 263.76C1351.45 256.542 1343.14 255.569 1335.94 255.569L1334.72 255.579C1325.71 255.703 1315.83 255.763 1303.62 255.763C1297.3 255.763 1290.97 255.748 1284.64 255.734C1278.31 255.717 1271.97 255.703 1265.63 255.703H1249.43V332.443H1177.95V255.99H1128.1V227.42H1177.67V151.283C1178.84 151.202 1180.01 151.158 1181.18 151.151C1204.19 151.146 1227.2 151.103 1250.21 151.063C1274.72 151.017 1299.24 150.972 1323.76 150.972C1369.26 150.972 1406.2 151.134 1440.02 151.481C1467.51 151.763 1491.44 154.999 1513.18 161.375C1526.84 165.386 1544.4 171.549 1559.1 183.73C1566.36 189.747 1570.22 196.781 1570.25 204.063C1570.29 211.362 1566.52 218.425 1559.35 224.48C1544.94 236.654 1526.85 244.539 1504.04 248.597C1493.26 250.518 1482.63 252.57 1471.38 254.744C1466.34 255.715 1461.21 256.705 1455.96 257.702L1442.77 260.213L1532.67 328.528L1531.05 332.875C1529.3 333.024 1527.76 333.143 1526.29 333.146L1512.89 333.184C1505.89 333.208 1498.89 333.232 1491.89 333.232" fill="white"/>
<path d="M1270.94 221.242H1263.88C1261.32 221.242 1258.76 221.008 1255.52 220.852V186.143C1258.37 185.928 1260.88 185.564 1263.39 185.564C1295.75 185.545 1328.1 185.358 1360.46 185.358C1385.02 185.358 1409.58 185.466 1434.13 185.837C1454.16 186.136 1474.6 188.102 1492.21 199.976C1494.99 208.258 1488.63 211.604 1483.56 213.355C1470.79 217.767 1457.91 221.481 1443.91 221.481C1443.69 221.481 1443.46 221.481 1443.24 221.477C1414.97 221.237 1386.7 221.178 1358.42 221.178C1329.26 221.178 1300.1 221.242 1270.94 221.242ZM1323.86 145C1276.3 145 1228.74 145.167 1181.18 145.177C1178.38 145.177 1175.59 145.466 1171.69 145.679V221.446H1122.12V261.971H1171.97V338.427H1255.41V261.689H1265.69C1278.35 261.689 1291.01 261.749 1303.67 261.749C1314.05 261.749 1324.43 261.708 1334.8 261.563C1335.18 261.558 1335.57 261.553 1335.94 261.553C1342.9 261.553 1348.97 262.562 1354.24 267.948C1358.02 271.803 1362.78 274.721 1367.21 277.897C1379.52 286.701 1391.98 295.277 1404.19 304.205C1418.09 314.374 1431.61 325.086 1445.7 334.978C1449.3 337.501 1454.43 338.883 1458.89 338.962C1469.88 339.158 1480.87 339.211 1491.86 339.211C1503.34 339.211 1514.82 339.151 1526.3 339.132C1529.11 339.125 1531.91 338.769 1535.31 338.534L1539.83 326.461C1512.09 305.379 1484.72 284.584 1457.08 263.581C1473.9 260.383 1489.47 257.27 1505.09 254.488C1526.54 250.671 1546.55 243.123 1563.2 229.053C1580.44 214.496 1580.81 193.959 1562.92 179.131C1548.78 167.412 1532.38 160.787 1514.86 155.645C1490.35 148.453 1465.17 145.768 1440.08 145.507C1401.34 145.11 1362.6 145 1323.86 145ZM1270.94 233.203C1285.53 233.203 1300.11 233.184 1314.7 233.167C1329.27 233.152 1343.85 233.136 1358.42 233.136C1392.53 233.136 1418.66 233.231 1443.14 233.435L1443.91 233.44C1459.85 233.44 1474.27 229.218 1487.46 224.658C1504.4 218.803 1506.88 206.106 1503.55 196.176L1502.26 192.33L1498.9 190.063C1478.62 176.388 1455.87 174.206 1434.31 173.879C1412.63 173.551 1389.16 173.4 1360.46 173.4C1343.4 173.4 1326.34 173.453 1309.28 173.503C1293.98 173.551 1278.68 173.599 1263.38 173.606C1261.11 173.606 1259.05 173.807 1257.06 173.998C1256.27 174.077 1255.45 174.156 1254.61 174.221L1243.56 175.07V232.246L1254.95 232.796C1255.98 232.846 1256.93 232.904 1257.84 232.959C1259.89 233.083 1261.81 233.198 1263.88 233.198L1270.94 233.2M1323.86 156.958C1369.28 156.958 1406.18 157.118 1439.96 157.465C1466.89 157.74 1490.29 160.899 1511.5 167.12C1531.23 172.91 1544.33 179.257 1555.29 188.336C1559.37 191.723 1564.24 197.204 1564.28 204.097C1564.31 211.011 1559.52 216.516 1555.49 219.917C1541.91 231.39 1524.74 238.847 1503 242.714C1492.18 244.639 1481.55 246.691 1470.3 248.865C1465.24 249.841 1460.11 250.834 1454.85 251.833L1428.46 256.851L1449.85 273.102L1521.02 327.186L1512.81 327.21C1505.82 327.234 1498.84 327.253 1491.86 327.253C1479.03 327.253 1468.62 327.176 1459.1 327.007C1456.45 326.959 1453.81 326.057 1452.57 325.191C1444.28 319.368 1435.97 313.09 1427.93 307.017C1422.49 302.913 1416.88 298.671 1411.25 294.557C1403.72 289.052 1396.02 283.62 1388.57 278.371C1383.76 274.982 1378.96 271.595 1374.17 268.173C1373.11 267.41 1372.02 266.661 1370.94 265.91C1367.83 263.763 1364.9 261.737 1362.79 259.58C1354.12 250.731 1343.89 249.595 1335.94 249.595C1335.51 249.595 1335.07 249.6 1334.63 249.604C1325.66 249.731 1315.82 249.791 1303.67 249.791C1297.34 249.791 1291.03 249.774 1284.7 249.76C1278.37 249.745 1272.03 249.731 1265.69 249.731H1243.45V326.468H1183.93V250.013H1134.08V233.404H1183.65V157.135C1205.79 157.128 1227.93 157.087 1250.07 157.047C1274.67 157.001 1299.26 156.958 1323.86 156.958Z" fill="#F4773A"/>
<path d="M877.873 332.388V180.105H780.612L779.56 198.903H708.979V151.661H1117.9V198.826H1047.3L1046.22 180.143H949.493V332.386L877.873 332.388Z" fill="white"/>
<path d="M1123.88 145.68H703V204.879H785.214L786.266 186.084H871.893V338.363H955.471V186.12H1040.58C1040.96 192.74 1041.3 198.79 1041.65 204.803H1123.88V145.68ZM1111.92 157.638V192.845H1052.94L1052.52 185.436L1051.87 174.161H943.512V326.404H883.852V174.126H774.958L774.327 185.414L773.906 192.924H714.959V157.638H1111.92Z" fill="#F4773A"/>
</svg>
