<svg width="2050" height="637" viewBox="0 0 2050 637" fill="none" xmlns="http://www.w3.org/2000/svg">
<path d="M318.484 578.39C175.169 578.39 58.5791 461.797 58.5791 318.477C58.5791 175.17 175.169 58.5693 318.484 58.5693C461.796 58.5693 578.392 175.17 578.392 318.477C578.392 461.797 461.794 578.39 318.484 578.39Z" fill="#F4773A"/>
<path d="M318.484 54.5488C172.956 54.5488 54.5591 172.946 54.5591 318.479C54.5591 463.998 172.956 582.4 318.484 582.4C464.019 582.4 582.416 464.001 582.416 318.476C582.416 172.946 464.019 54.5488 318.484 54.5488ZM318.484 62.5878C459.801 62.5878 574.369 177.161 574.369 318.479C574.369 459.799 459.801 574.37 318.484 574.37C177.161 574.37 62.5981 459.799 62.5981 318.479C62.5981 177.161 177.161 62.5878 318.484 62.5878Z" fill="black"/>
<path d="M318.481 0C142.871 0 0 142.871 0 318.472C0 494.082 142.871 636.959 318.481 636.959C494.093 636.959 636.961 494.082 636.961 318.472C636.961 142.871 494.093 0 318.481 0ZM318.481 8.03901C489.932 8.03901 628.922 147.024 628.922 318.472C628.922 489.932 489.929 628.914 318.481 628.914C147.032 628.914 8.03895 489.932 8.03895 318.472C8.03895 147.024 147.032 8.03901 318.481 8.03901Z" fill="black"/>
<path d="M329.846 496.068C283.027 496.068 234.921 495.694 234.921 495.694C234.485 495.683 197.797 494.299 195.988 453.565C194.175 412.833 228.359 408.647 228.699 408.612L352.015 408.622C359.28 408.622 383.026 406.797 383.653 383.375C383.8 377.641 382.144 373.093 378.582 369.414C369.889 360.492 352.432 359.522 345.333 359.522C343.164 359.522 341.834 359.617 341.758 359.625L277.814 359.634C277.04 359.579 238.733 355.421 240.085 312.201C241.431 269.264 285.062 268.774 286.924 268.774L363.997 269.191C367.777 269.191 384.648 267.82 385.318 241.896C385.231 239.981 383.708 220.979 358.531 220.979C357.659 220.979 356.768 221.006 355.838 221.06C355.838 221.06 354.863 221.115 353.179 221.115C328.887 221.115 302.83 211.092 302.5 182.964C302.32 166.343 306.438 153.658 314.755 145.254C324.113 135.779 336.406 134.367 342.894 134.367H397.369C402.617 134.367 443.804 135.577 445.052 175.369C446.235 213.264 446.837 287.811 446.848 288.569C446.913 288.689 447.854 295.349 443.752 300.167C442.03 302.189 438.771 304.598 432.961 304.598L431.915 304.579C429.279 304.579 427.361 305.047 426.538 305.892C425.66 306.783 425.69 308.582 425.715 310.171V311.541C425.614 314.424 425.492 317.85 426.249 318.629C426.456 318.855 427.184 319.114 428.555 319.114H433.866C434.285 319.033 434.874 318.956 435.582 318.956C438.155 318.956 440.52 319.937 442.232 321.687C444.461 323.984 445.537 327.483 445.417 332.069C445.126 342.771 443.72 447.398 443.706 448.45C443.752 448.867 444.861 466.893 432.22 480.701C423.369 490.364 410.163 495.416 392.987 495.694C376.377 495.972 353.255 496.068 329.846 496.068Z" fill="black"/>
<path d="M397.768 130.339H397.659L397.12 130.35L342.896 130.342C330.598 130.342 319.591 134.628 311.89 142.425C302.802 151.605 298.283 165.266 298.485 182.996C298.839 214.062 326.973 225.126 353.178 225.126C355.036 225.126 356.107 225.06 356.107 225.06C356.9 225.019 357.726 225.006 358.524 225.006C380.134 225.006 381.246 240.49 381.292 242.247C380.739 263.492 368.16 265.165 364.315 265.165L287.013 264.748C269.845 264.748 237.239 274.648 236.067 312.067C234.898 349.646 262.37 362.208 277.055 363.603L277.437 363.642H341.768L342.048 363.622C342.163 363.614 343.386 363.549 345.332 363.549C350.466 363.549 367.86 364.162 375.706 372.212C378.505 375.106 379.753 378.616 379.63 383.268C379.118 402.515 360.154 404.594 352.019 404.594C351.491 404.594 351.156 404.581 351.071 404.581L229.134 404.57H228.693L228.265 404.616C215.021 406.058 190.387 418.154 191.967 453.741C193.539 489.298 220.64 499.367 234.756 499.721C235.375 499.721 283.543 500.095 329.845 500.095C357.055 500.095 378.33 499.953 393.051 499.721C411.377 499.405 425.561 493.914 435.184 483.417C448.057 469.353 447.858 451.294 447.735 448.236C447.809 442.405 449.163 342.59 449.433 332.186C449.569 326.458 448.128 321.978 445.106 318.871C442.634 316.337 439.241 314.936 435.581 314.936C434.805 314.936 434.118 315.002 433.551 315.083H429.654C429.646 314.102 429.69 312.963 429.717 312.058C429.744 311.222 429.744 310.701 429.72 310.113V308.783C430.183 308.69 430.87 308.606 431.9 308.606H431.995L432.96 308.614C440.309 308.614 444.542 305.442 446.803 302.782C451.409 297.376 451.144 290.544 450.864 288.023C450.804 281.442 450.199 211.557 449.068 175.232C447.959 139.792 416.296 130.339 397.768 130.339ZM397.768 138.381C402.196 138.381 439.906 139.435 441.034 175.488C442.222 213.781 442.833 288.585 442.833 288.585C442.833 288.585 444.77 300.575 432.96 300.575C432.824 300.575 432.687 300.575 432.551 300.567H431.9C420.324 300.567 421.806 308.123 421.694 311.399C421.471 317.757 421.125 323.122 428.553 323.122H434.44H434.26C434.26 323.122 434.799 322.975 435.581 322.975C437.707 322.975 441.609 324.049 441.394 331.965C441.105 342.811 439.683 448.392 439.683 448.392C439.683 448.392 442.683 490.843 392.926 491.666C376.33 491.949 353.243 492.045 329.845 492.045C283.039 492.045 234.958 491.669 234.958 491.669C234.958 491.669 201.657 490.843 200.003 453.387C198.33 415.95 229.134 412.609 229.134 412.609H350.632C350.632 412.609 351.136 412.636 352.022 412.636C358.655 412.636 386.939 411.017 387.674 383.477C388.361 357.761 356.538 355.499 345.332 355.499C342.942 355.499 341.479 355.608 341.479 355.608H277.815C277.815 355.608 242.863 352.27 244.112 312.328C245.332 273.191 285.288 272.787 286.917 272.787H286.974L363.953 273.207H364.312C367.34 273.207 388.566 272.139 389.339 242.005C389.339 242.005 388.549 216.953 358.535 216.953C357.595 216.953 356.63 216.991 355.63 217.035C355.63 217.035 354.731 217.095 353.178 217.095C343.286 217.095 306.887 214.906 306.527 182.914C306.105 145.866 328.069 138.394 342.896 138.394H397.343C397.343 138.394 397.49 138.381 397.768 138.381Z" fill="#F9FAF9"/>
<path d="M239.33 221.153C218.143 221.153 200.909 201.685 200.909 177.759C200.909 153.835 218.143 134.367 239.327 134.367C260.509 134.367 277.751 153.835 277.751 177.759C277.751 201.685 260.509 221.153 239.327 221.153" fill="black"/>
<path d="M239.332 130.339C215.926 130.339 196.886 151.605 196.886 177.766C196.886 203.919 215.926 225.18 239.329 225.18C262.732 225.18 281.772 203.919 281.772 177.764C281.772 151.603 262.732 130.342 239.329 130.342M239.329 138.381C258.331 138.381 273.728 156.012 273.728 177.766C273.728 199.504 258.331 217.133 239.329 217.133C220.327 217.133 204.93 199.502 204.93 177.766C204.93 156.012 220.327 138.381 239.329 138.381Z" fill="#F9FAF9"/>
<path d="M2049.52 145.679H1646.55V221.469H1597.1V262.081H1646.96V338.445H2049.4V280.691H1968.02V298.055H1729.32V261.502H1862.9V221.06H1729.55V186.217H1967.65L1968.59 204.964H2049.52V145.679ZM1270.94 221.247H1263.88C1261.32 221.247 1258.76 221.012 1255.52 220.857V186.145C1258.37 185.93 1260.88 185.566 1263.38 185.566C1295.74 185.547 1328.1 185.361 1360.46 185.361C1385.01 185.361 1409.58 185.468 1434.13 185.839C1454.16 186.138 1474.6 188.104 1492.21 199.979C1494.99 208.262 1488.62 211.608 1483.55 213.359C1470.78 217.771 1457.91 221.486 1443.91 221.486C1443.68 221.486 1443.46 221.486 1443.24 221.481C1414.97 221.242 1386.7 221.182 1358.42 221.182C1329.26 221.182 1300.1 221.247 1270.94 221.247ZM1323.85 145C1276.3 145 1228.73 145.167 1181.18 145.177C1178.38 145.177 1175.59 145.466 1171.69 145.679V221.45H1122.12V261.978H1171.97V338.438H1255.4V261.696H1265.69C1278.34 261.696 1291 261.756 1303.66 261.756C1314.04 261.756 1324.42 261.715 1334.8 261.569C1335.18 261.564 1335.56 261.559 1335.94 261.559C1342.9 261.559 1348.97 262.569 1354.24 267.955C1358.02 271.811 1362.78 274.728 1367.21 277.905C1379.51 286.709 1391.98 295.286 1404.19 304.214C1418.09 314.384 1431.61 325.096 1445.7 334.989C1449.3 337.512 1454.43 338.894 1458.88 338.973C1469.87 339.169 1480.86 339.222 1491.86 339.222C1503.34 339.222 1514.82 339.162 1526.3 339.143C1529.1 339.136 1531.91 338.78 1535.31 338.545L1539.83 326.472C1512.09 305.388 1484.71 284.592 1457.08 263.588C1473.9 260.39 1489.46 257.276 1505.09 254.494C1526.54 250.677 1546.54 243.129 1563.2 229.058C1580.44 214.499 1580.81 193.962 1562.92 179.133C1548.78 167.413 1532.38 160.788 1514.86 155.646C1490.35 148.454 1465.17 145.768 1440.08 145.507C1401.34 145.11 1362.6 145 1323.85 145ZM1123.88 145.684H703V204.887H785.214L786.266 186.09H871.893V338.378H955.471V186.126H1040.58C1040.96 192.747 1041.3 198.798 1041.65 204.81H1123.88V145.684Z" fill="#F4773A"/>
<path d="M802.763 449.624C809.018 445.19 812.148 438.558 812.148 429.73C812.148 424.348 810.764 419.722 807.989 415.855C802.744 408.414 793.151 404.693 779.212 404.693C765.198 404.693 755.605 408.622 750.434 416.484C747.66 420.689 746.275 426.027 746.275 432.504C746.275 437.716 747.662 442.152 750.436 445.809C755.679 452.788 765.27 456.278 779.212 456.278C788.654 456.278 796.504 454.061 802.763 449.624ZM726.892 396.683H746.61V405.637C750.627 402.582 755.1 400.177 759.865 398.51C766.681 395.989 774.694 394.729 783.902 394.729C797.53 394.729 809.099 397.659 818.609 403.528C828.121 409.388 832.875 417.768 832.875 428.656C832.875 443.372 826.011 453.881 812.292 460.189C803.596 464.183 793.471 466.18 781.926 466.18C772.852 466.18 765.241 465.065 759.095 462.836C755.493 461.576 751.482 459.411 747.059 456.343V490.836H726.892V396.683ZM862.497 396.683H882.105V463.908H862.497V396.683ZM862.497 371.268H882.105V384.133H862.497V371.268ZM912.241 454.953L982.384 406.52H917.424V396.367H1009.08V405.637L939.385 453.755H1011.17V463.908H912.241V454.953ZM1029.13 454.953L1100.09 406.52H1034.38V396.367H1127.09V405.637L1056.59 453.755H1129.21V463.908H1029.13V454.953ZM1244.82 422.353C1243.99 417.434 1242.07 413.504 1239.06 410.562C1233.49 405.095 1224.2 402.363 1211.18 402.363C1201.86 402.363 1194.02 404.245 1187.71 408.008C1181.38 411.77 1178.03 416.551 1177.66 422.353H1244.82ZM1237.48 395.836C1245.55 398.087 1251.7 400.995 1255.92 404.568C1260 407.974 1262.71 411.947 1264.07 416.489C1265.27 419.601 1265.88 424.561 1265.88 431.373H1177.2C1177.58 438.244 1180.48 443.757 1185.9 447.909C1191.32 452.061 1199.72 454.137 1211.09 454.137C1221.71 454.137 1230.18 452.176 1236.5 448.246C1240.04 445.965 1242.55 443.327 1244.02 440.33H1264.17C1263.64 442.808 1261.88 445.572 1258.88 448.617C1255.95 451.619 1252.56 454.141 1248.85 456.091C1242.67 459.457 1235.02 461.726 1225.91 462.903C1221.02 463.575 1215.48 463.912 1209.31 463.912C1194.22 463.912 1181.44 460.853 1170.96 454.738C1160.48 448.617 1155.23 440.052 1155.23 429.038C1155.23 418.192 1160.51 409.383 1171.07 402.614C1181.63 395.846 1195.43 392.461 1212.48 392.461C1221.08 392.461 1229.41 393.588 1237.48 395.836ZM1293.91 396.367H1312.23V408.034C1313.73 405.764 1317.41 402.999 1323.27 399.742C1329.12 396.484 1335.87 394.853 1343.52 394.853C1343.88 394.853 1344.48 394.877 1345.34 394.918C1346.2 394.958 1347.66 395.042 1349.73 395.169V407.151C1348.68 407.032 1347.63 406.948 1346.57 406.898C1345.52 406.855 1344.46 406.834 1343.41 406.836C1333.7 406.836 1326.23 408.677 1321.02 412.356C1315.8 416.034 1313.2 420.268 1313.2 425.061V463.908H1293.91V396.367ZM1376.01 396.683H1395.62V463.908H1376.01V396.683ZM1376.01 371.268H1395.62V384.133H1376.01V371.268ZM1455.66 453.7C1459.95 455.587 1465.02 456.532 1470.89 456.532C1478.03 456.532 1484.95 455.608 1491.64 453.757C1502.93 450.696 1508.57 445.68 1508.57 438.711V429.584C1506.09 430.469 1502.9 431.208 1499 431.798C1495.19 432.379 1491.36 432.8 1487.51 433.059L1475.24 433.941C1467.89 434.489 1462.36 435.348 1458.65 436.522C1452.37 438.495 1449.23 441.64 1449.23 445.962C1449.23 449.232 1451.37 451.813 1455.66 453.7ZM1498.42 423.035C1503.08 422.698 1506.2 421.607 1507.78 419.758C1508.68 418.749 1509.13 417.292 1509.13 415.391C1509.13 411.509 1506.67 408.694 1501.75 406.941C1496.84 405.19 1489.8 404.315 1480.65 404.315C1470.07 404.315 1462.56 405.917 1458.13 409.129C1455.65 410.904 1454.04 413.547 1453.29 417.053H1434.34C1434.72 408.706 1439.54 402.894 1448.82 399.629C1458.09 396.36 1468.85 394.726 1481.1 394.726C1495.29 394.726 1506.82 396.243 1515.69 399.268C1524.48 402.296 1528.87 407.006 1528.87 413.394V452.308C1528.87 453.484 1529.3 454.432 1530.17 455.144C1531.03 455.857 1532.86 456.216 1535.64 456.216C1536.54 456.216 1537.56 456.182 1538.68 456.12C1539.81 456.056 1541.01 455.962 1542.29 455.838V464.223C1539.14 464.726 1536.73 465.044 1535.07 465.171C1533.42 465.297 1531.16 465.359 1528.31 465.359C1521.31 465.359 1516.24 463.972 1513.08 461.198C1511.42 459.727 1510.26 457.646 1509.58 454.955C1505.44 457.983 1499.5 460.612 1491.76 462.836C1484.01 465.065 1475.47 466.18 1466.15 466.18C1454.95 466.18 1445.79 464.278 1438.68 460.478C1431.58 456.68 1428.02 451.925 1428.02 446.213C1428.02 439.957 1431.52 435.109 1438.51 431.665C1445.51 428.22 1454.68 426.099 1466.04 425.302L1498.42 423.035ZM1557.24 436.288V425.692H1608.4V398.008H1628.47V425.692H1679.63V436.288H1628.47V463.91H1608.4V436.285L1557.24 436.288ZM1779.8 411.251C1773.56 407.216 1765.6 405.197 1755.93 405.197C1741.45 405.197 1731.55 408.938 1726.22 416.422C1723.4 420.416 1721.99 425.649 1721.99 432.124C1721.99 439.734 1724.79 445.527 1730.39 449.497C1735.99 453.472 1743.51 455.458 1752.96 455.458C1767.73 455.458 1778.13 451.779 1784.15 444.422C1787.49 440.26 1789.17 435.405 1789.17 429.854C1789.17 421.488 1786.05 415.286 1779.8 411.251ZM1777.28 399.077C1781.16 400.55 1785.13 402.696 1789.17 405.511V396.996H1808.24V458.423C1808.24 467 1805.94 473.769 1801.37 478.729C1792.82 487.895 1776.69 492.477 1752.96 492.477C1739.76 492.477 1728.65 490.846 1719.65 487.588C1710.65 484.331 1705.61 479.234 1704.54 472.296H1725.55C1726.54 475.324 1728.52 477.658 1731.49 479.296C1736.13 481.819 1743.45 483.08 1753.42 483.08C1769.18 483.08 1779.5 480.011 1784.37 473.872C1787.26 470.258 1788.6 463.802 1788.37 454.513C1784.25 457.957 1779.3 460.526 1773.5 462.207C1767.71 463.889 1760.04 464.728 1750.51 464.728C1737.24 464.728 1725.63 462.133 1715.67 456.938C1705.73 451.748 1700.75 443.162 1700.75 431.179C1700.75 419.871 1705.76 411.04 1715.79 404.693C1725.82 398.345 1737.93 395.169 1752.11 395.169C1761.72 395.169 1770.11 396.47 1777.28 399.077ZM1840.52 393.975H1858.84V405.642C1860.34 403.373 1864.02 400.608 1869.88 397.35C1875.74 394.093 1882.49 392.461 1890.13 392.461C1890.49 392.461 1891.09 392.485 1891.95 392.526C1892.81 392.567 1894.27 392.65 1896.34 392.777V404.76C1895.29 404.641 1894.24 404.556 1893.19 404.506C1892.13 404.463 1891.08 404.443 1890.02 404.444C1880.31 404.444 1872.84 406.286 1867.63 409.964C1862.42 413.643 1859.81 417.876 1859.81 422.669V461.516H1840.52V393.975ZM1922.63 396.683H1942.23V463.908H1922.63V396.683ZM1922.63 371.268H1942.23V384.133H1922.63V371.268ZM1979.09 371.268H1998.37V463.908H1979.09V371.268ZM2027.84 371.268H2047.12V463.908H2027.84V371.268ZM1652.93 332.462V256.093H1603.08V227.445H1652.53V151.65H2043.54V198.978H1974.28L1973.33 180.234H1723.56V227.036H1856.91V255.519H1723.34V304.031H1973.99V286.667H2043.42V332.462H1652.93Z" fill="black"/>
<path d="M2049.52 145.681H1646.55V221.47H1597.1V262.082H1646.96V338.446H2049.4V280.693H1968.02V298.057H1729.32V261.504H1862.9V221.061H1729.55V186.218H1967.65L1968.59 204.965H2049.52V145.681ZM2037.56 157.639V193.006H1979.96L1979.59 185.618L1979.02 174.26H1717.59V233.02H1850.94V249.547H1717.37V310.015H1979.98V292.651H2037.45V326.487H1658.92V250.126H1609.06V233.432H1658.51V157.642L2037.56 157.639Z" fill="#F4773A"/>
<path d="M1358.64 227.159C1392.66 227.159 1418.74 227.248 1443.19 227.456L1443.91 227.458C1458.97 227.458 1472.81 223.397 1485.51 219.006C1501.19 213.586 1499.38 202.563 1497.88 198.078L1497.24 196.15L1495.56 195.017C1476.57 182.221 1454.86 180.166 1434.22 179.855C1412.55 179.53 1389.09 179.377 1360.38 179.377C1343.36 179.377 1326.34 179.43 1309.32 179.48C1294 179.528 1278.69 179.576 1263.38 179.58C1261.4 179.583 1259.48 179.772 1257.63 179.949C1256.8 180.03 1255.95 180.111 1255.06 180.181L1249.54 180.606V226.552L1255.23 226.825C1256.29 226.877 1257.26 226.935 1258.19 226.992C1260.15 227.112 1261.99 227.217 1263.87 227.219L1270.97 227.222C1285.58 227.222 1300.2 227.207 1314.81 227.191C1329.42 227.174 1344.03 227.157 1358.64 227.157M1491.88 333.241C1479.01 333.241 1468.56 333.159 1458.99 332.99C1455.43 332.927 1451.56 331.789 1449.14 330.091C1440.76 324.21 1432.4 317.898 1424.33 311.799C1418.82 307.617 1413.29 303.479 1407.72 299.386C1400.24 293.911 1392.55 288.496 1385.13 283.265C1380.31 279.864 1375.49 276.468 1370.69 273.038C1369.65 272.294 1368.6 271.559 1367.54 270.833C1364.19 268.518 1361.03 266.336 1358.52 263.768C1351.45 256.549 1343.14 255.576 1335.94 255.576L1334.72 255.585C1325.71 255.71 1315.83 255.77 1303.62 255.77C1297.3 255.77 1290.97 255.755 1284.64 255.741C1278.31 255.724 1271.97 255.71 1265.63 255.71H1249.43V332.454H1177.95V255.997H1128.1V227.425H1177.67V151.284C1178.84 151.203 1180.01 151.159 1181.18 151.152C1204.19 151.147 1227.2 151.104 1250.2 151.064C1274.72 151.018 1299.24 150.973 1323.76 150.973C1369.26 150.973 1406.2 151.135 1440.02 151.482C1467.51 151.764 1491.44 155 1513.18 161.377C1526.84 165.388 1544.4 171.551 1559.1 183.732C1566.36 189.75 1570.22 196.784 1570.25 204.067C1570.29 211.367 1566.52 218.43 1559.35 224.485C1544.94 236.659 1526.85 244.545 1504.04 248.604C1493.26 250.524 1482.63 252.577 1471.38 254.751C1466.34 255.722 1461.21 256.712 1455.96 257.709L1442.77 260.221L1532.67 328.539L1531.05 332.887C1529.3 333.035 1527.76 333.155 1526.29 333.157L1512.89 333.195C1505.89 333.219 1498.88 333.243 1491.89 333.243" fill="black"/>
<path d="M1270.94 221.247H1263.88C1261.32 221.247 1258.76 221.012 1255.52 220.857V186.145C1258.37 185.93 1260.88 185.566 1263.39 185.566C1295.75 185.547 1328.1 185.361 1360.46 185.361C1385.02 185.361 1409.58 185.468 1434.13 185.839C1454.16 186.138 1474.6 188.104 1492.21 199.979C1494.99 208.262 1488.62 211.608 1483.56 213.359C1470.78 217.771 1457.91 221.486 1443.91 221.486C1443.69 221.486 1443.46 221.486 1443.24 221.481C1414.97 221.242 1386.7 221.182 1358.42 221.182C1329.26 221.182 1300.1 221.247 1270.94 221.247ZM1323.85 145C1276.3 145 1228.73 145.167 1181.18 145.177C1178.38 145.177 1175.59 145.466 1171.69 145.679V221.45H1122.12V261.978H1171.97V338.438H1255.41V261.696H1265.69C1278.35 261.696 1291.01 261.756 1303.67 261.756C1314.05 261.756 1324.43 261.715 1334.8 261.569C1335.18 261.564 1335.56 261.559 1335.94 261.559C1342.9 261.559 1348.97 262.569 1354.24 267.955C1358.02 271.811 1362.78 274.728 1367.21 277.905C1379.52 286.709 1391.98 295.286 1404.19 304.214C1418.09 314.384 1431.61 325.096 1445.7 334.989C1449.3 337.512 1454.43 338.894 1458.89 338.973C1469.88 339.169 1480.87 339.222 1491.86 339.222C1503.34 339.222 1514.82 339.162 1526.3 339.143C1529.11 339.136 1531.91 338.78 1535.31 338.545L1539.83 326.472C1512.09 305.388 1484.72 284.592 1457.08 263.588C1473.9 260.39 1489.47 257.276 1505.09 254.494C1526.54 250.677 1546.55 243.129 1563.2 229.058C1580.44 214.499 1580.81 193.962 1562.92 179.133C1548.78 167.413 1532.38 160.788 1514.86 155.646C1490.35 148.454 1465.17 145.768 1440.08 145.507C1401.34 145.11 1362.6 145 1323.85 145ZM1270.94 233.208C1285.53 233.208 1300.11 233.189 1314.7 233.172C1329.27 233.157 1343.85 233.141 1358.42 233.141C1392.53 233.141 1418.66 233.236 1443.14 233.44L1443.91 233.445C1459.85 233.445 1474.26 229.223 1487.46 224.662C1504.4 218.807 1506.88 206.109 1503.55 196.179L1502.26 192.333L1498.9 190.065C1478.62 176.389 1455.87 174.208 1434.31 173.88C1412.63 173.553 1389.16 173.402 1360.46 173.402C1343.4 173.402 1326.33 173.455 1309.28 173.505C1293.98 173.553 1278.68 173.601 1263.38 173.608C1261.11 173.608 1259.05 173.809 1257.06 174C1256.27 174.079 1255.45 174.158 1254.61 174.222L1243.56 175.071V232.251L1254.95 232.801C1255.98 232.851 1256.93 232.909 1257.84 232.964C1259.88 233.088 1261.81 233.203 1263.88 233.203L1270.94 233.205M1323.85 156.959C1369.28 156.959 1406.18 157.119 1439.96 157.466C1466.89 157.741 1490.29 160.9 1511.49 167.121C1531.23 172.912 1544.33 179.259 1555.29 188.338C1559.37 191.725 1564.24 197.207 1564.28 204.1C1564.31 211.015 1559.52 216.52 1555.49 219.922C1541.91 231.395 1524.74 238.852 1503 242.72C1492.18 244.645 1481.55 246.697 1470.3 248.871C1465.24 249.847 1460.11 250.84 1454.85 251.839L1428.46 256.857L1449.84 273.109L1521.02 327.196L1512.81 327.22C1505.82 327.244 1498.84 327.263 1491.86 327.263C1479.03 327.263 1468.62 327.187 1459.1 327.017C1456.45 326.969 1453.81 326.067 1452.57 325.202C1444.28 319.378 1435.97 313.099 1427.93 307.027C1422.49 302.922 1416.88 298.679 1411.25 294.566C1403.72 289.06 1396.02 283.628 1388.57 278.378C1383.76 274.989 1378.96 271.602 1374.17 268.18C1373.11 267.417 1372.02 266.668 1370.94 265.917C1367.83 263.77 1364.9 261.744 1362.79 259.586C1354.12 250.737 1343.89 249.601 1335.94 249.601C1335.51 249.601 1335.07 249.606 1334.63 249.61C1325.66 249.737 1315.82 249.797 1303.67 249.797C1297.34 249.797 1291.03 249.78 1284.7 249.766C1278.37 249.751 1272.03 249.737 1265.69 249.737H1243.45V326.479H1183.93V250.019H1134.08V233.409H1183.65V157.136C1205.79 157.129 1227.93 157.088 1250.07 157.047C1274.67 157.002 1299.26 156.959 1323.85 156.959Z" fill="#F4773A"/>
<path d="M877.872 332.4V180.108H780.612L779.56 198.907H708.979V151.663H1117.9V198.831H1047.3L1046.22 180.146H949.493V332.398L877.872 332.4Z" fill="black"/>
<path d="M1123.88 145.681H703V204.884H785.214L786.266 186.087H871.893V338.374H955.471V186.123H1040.58C1040.96 192.743 1041.3 198.794 1041.65 204.807H1123.88V145.681ZM1111.92 157.639V192.848H1052.94L1052.52 185.439L1051.87 174.164H943.512V326.416H883.852V174.128H774.958L774.327 185.417L773.906 192.927H714.959V157.639H1111.92Z" fill="#F4773A"/>
</svg>
