<svg width="637" height="637" viewBox="0 0 637 637" fill="none" xmlns="http://www.w3.org/2000/svg">
<path d="M318.549 636.842C142.969 636.842 0.129883 494.002 0.129883 318.418C0.129883 142.85 142.969 0 318.549 0C494.127 0 636.972 142.85 636.972 318.418C636.972 494.002 494.123 636.842 318.549 636.842Z" fill="white"/>
<path d="M318.484 578.357C175.169 578.357 58.5791 461.77 58.5791 318.458C58.5791 175.16 175.169 58.5654 318.484 58.5654C461.796 58.5654 578.392 175.16 578.392 318.458C578.392 461.77 461.794 578.357 318.484 578.357Z" fill="#F4773A"/>
<path d="M318.484 54.5459C172.956 54.5459 54.5591 172.936 54.5591 318.461C54.5591 463.972 172.956 582.367 318.484 582.367C464.019 582.367 582.416 463.975 582.416 318.458C582.416 172.936 464.019 54.5459 318.484 54.5459ZM318.484 62.5844C459.801 62.5844 574.369 177.151 574.369 318.461C574.369 459.773 459.801 574.337 318.484 574.337C177.161 574.337 62.5981 459.773 62.5981 318.461C62.5981 177.151 177.161 62.5844 318.484 62.5844Z" fill="black"/>
<path d="M318.481 0C142.871 0 0 142.863 0 318.454C0 494.054 142.871 636.922 318.481 636.922C494.093 636.922 636.961 494.054 636.961 318.454C636.961 142.863 494.093 0 318.481 0ZM318.481 8.03855C489.932 8.03855 628.922 147.015 628.922 318.454C628.922 489.904 489.929 628.878 318.481 628.878C147.032 628.878 8.03895 489.904 8.03895 318.454C8.03895 147.015 147.032 8.03855 318.481 8.03855Z" fill="black"/>
<path d="M329.847 496.039C283.027 496.039 234.921 495.666 234.921 495.666C234.485 495.655 197.797 494.271 195.988 453.539C194.176 412.809 228.359 408.624 228.7 408.588L352.015 408.599C359.28 408.599 383.027 406.773 383.653 383.353C383.801 377.619 382.144 373.071 378.582 369.393C369.889 360.471 352.432 359.501 345.333 359.501C343.164 359.501 341.834 359.597 341.758 359.605L277.814 359.613C277.04 359.558 238.733 355.4 240.085 312.183C241.431 269.249 285.063 268.758 286.924 268.758L363.998 269.175C367.777 269.175 384.648 267.805 385.319 241.882C385.231 239.967 383.708 220.966 358.531 220.966C357.659 220.966 356.768 220.993 355.839 221.048C355.839 221.048 354.863 221.102 353.179 221.102C328.888 221.102 302.83 211.08 302.5 182.953C302.321 166.334 306.438 153.649 314.755 145.245C324.113 135.771 336.406 134.359 342.894 134.359H397.369C402.617 134.359 443.804 135.569 445.052 175.359C446.235 213.252 446.837 287.795 446.848 288.552C446.914 288.672 447.854 295.332 443.753 300.15C442.03 302.171 438.771 304.58 432.961 304.58L431.915 304.561C429.28 304.561 427.361 305.03 426.538 305.875C425.661 306.766 425.691 308.564 425.715 310.153V311.523C425.614 314.406 425.492 317.832 426.249 318.611C426.456 318.837 427.184 319.096 428.555 319.096H433.866C434.286 319.014 434.874 318.938 435.583 318.938C438.155 318.938 440.521 319.919 442.232 321.668C444.461 323.965 445.537 327.464 445.418 332.05C445.126 342.751 443.72 447.372 443.706 448.424C443.753 448.841 444.862 466.866 432.22 480.673C423.369 490.336 410.163 495.388 392.987 495.666C376.378 495.944 353.255 496.039 329.847 496.039Z" fill="black"/>
<path d="M397.768 130.331H397.659L397.12 130.342L342.896 130.334C330.598 130.334 319.591 134.62 311.89 142.416C302.802 151.596 298.283 165.256 298.485 182.985C298.839 214.049 326.973 225.112 353.178 225.112C355.036 225.112 356.107 225.047 356.107 225.047C356.9 225.006 357.726 224.992 358.524 224.992C380.134 224.992 381.246 240.475 381.292 242.233C380.739 263.477 368.16 265.15 364.315 265.15L287.013 264.733C269.845 264.733 237.239 274.632 236.067 312.048C234.898 349.625 262.37 362.187 277.055 363.582L277.437 363.62H341.768L342.048 363.601C342.163 363.593 343.386 363.528 345.332 363.528C350.466 363.528 367.86 364.141 375.706 372.19C378.505 375.084 379.753 378.594 379.63 383.245C379.118 402.492 360.154 404.571 352.019 404.571C351.491 404.571 351.156 404.557 351.071 404.557L229.134 404.546H228.693L228.265 404.592C215.021 406.034 190.387 418.13 191.967 453.715C193.539 489.27 220.64 499.338 234.756 499.692C235.375 499.692 283.543 500.066 329.845 500.066C357.055 500.066 378.33 499.924 393.051 499.692C411.377 499.376 425.561 493.886 435.184 483.389C448.057 469.326 447.858 451.268 447.735 448.21C447.809 442.379 449.163 342.57 449.433 332.167C449.569 326.439 448.128 321.959 445.106 318.853C442.634 316.318 439.241 314.918 435.581 314.918C434.805 314.918 434.118 314.983 433.551 315.065H429.654C429.646 314.084 429.69 312.945 429.717 312.04C429.744 311.204 429.744 310.683 429.72 310.095V308.765C430.183 308.672 430.87 308.588 431.9 308.588H431.995L432.96 308.596C440.309 308.596 444.542 305.424 446.803 302.765C451.409 297.358 451.144 290.527 450.864 288.006C450.804 281.426 450.199 211.545 449.068 175.222C447.959 139.784 416.296 130.331 397.768 130.331ZM397.768 138.372C402.196 138.372 439.906 139.427 441.034 175.478C442.222 213.768 442.833 288.568 442.833 288.568C442.833 288.568 444.77 300.557 432.96 300.557C432.824 300.557 432.687 300.557 432.551 300.549H431.9C420.324 300.549 421.806 308.105 421.694 311.381C421.471 317.738 421.125 323.103 428.553 323.103H434.44H434.26C434.26 323.103 434.799 322.956 435.581 322.956C437.707 322.956 441.609 324.03 441.394 331.946C441.105 342.791 439.683 448.366 439.683 448.366C439.683 448.366 442.683 490.815 392.926 491.638C376.33 491.921 353.243 492.016 329.845 492.016C283.039 492.016 234.958 491.64 234.958 491.64C234.958 491.64 201.657 490.815 200.003 453.361C198.33 415.925 229.134 412.585 229.134 412.585H350.632C350.632 412.585 351.136 412.612 352.022 412.612C358.655 412.612 386.939 410.993 387.674 383.455C388.361 357.74 356.538 355.478 345.332 355.478C342.942 355.478 341.479 355.587 341.479 355.587H277.815C277.815 355.587 242.863 352.249 244.112 312.31C245.332 273.175 285.288 272.771 286.917 272.771H286.974L363.953 273.191H364.312C367.34 273.191 388.566 272.123 389.339 241.99C389.339 241.99 388.549 216.94 358.535 216.94C357.595 216.94 356.63 216.978 355.63 217.022C355.63 217.022 354.731 217.082 353.178 217.082C343.286 217.082 306.887 214.894 306.527 182.903C306.105 145.858 328.069 138.386 342.896 138.386H397.343C397.343 138.386 397.49 138.372 397.768 138.372Z" fill="#F9FAF9"/>
<path d="M239.33 221.14C218.143 221.14 200.909 201.673 200.909 177.748C200.909 153.826 218.143 134.359 239.327 134.359C260.509 134.359 277.751 153.826 277.751 177.748C277.751 201.673 260.509 221.14 239.327 221.14" fill="black"/>
<path d="M239.332 130.331C215.926 130.331 196.886 151.596 196.886 177.756C196.886 203.907 215.926 225.167 239.329 225.167C262.732 225.167 281.772 203.907 281.772 177.753C281.772 151.594 262.732 130.334 239.329 130.334M239.329 138.372C258.331 138.372 273.728 156.003 273.728 177.756C273.728 199.493 258.331 217.12 239.329 217.12C220.327 217.12 204.93 199.49 204.93 177.756C204.93 156.003 220.327 138.372 239.329 138.372Z" fill="#F9FAF9"/>
</svg>
